<mxfile host="Electron" modified="2023-12-06T12:00:57.999Z" agent="Mozilla/5.0 (Windows NT 10.0; Win64; x64) AppleWebKit/537.36 (KHTML, like Gecko) draw.io/22.1.2 Chrome/114.0.5735.289 Electron/25.9.4 Safari/537.36" etag="LGSHsz3NgIxymjIRloZx" version="22.1.2" type="device">
  <diagram name="第 1 页" id="N6iN6V0hHzY832mEbOhE">
    <mxGraphModel dx="3469" dy="1991" grid="1" gridSize="10" guides="1" tooltips="1" connect="0" arrows="1" fold="1" page="0" pageScale="1" pageWidth="827" pageHeight="1169" math="0" shadow="0">
      <root>
        <mxCell id="0" />
        <mxCell id="1" parent="0" />
        <mxCell id="pp8-QFKgKfyrIBCOwYfq-483" value="" style="rounded=1;whiteSpace=wrap;html=1;fillColor=#f9f7ed;strokeColor=#36393d;" parent="1" vertex="1">
          <mxGeometry x="-920" y="440" width="2320" height="1160" as="geometry" />
        </mxCell>
        <mxCell id="pp8-QFKgKfyrIBCOwYfq-482" value="" style="rounded=1;whiteSpace=wrap;html=1;fillColor=#f9f7ed;strokeColor=#36393d;" parent="1" vertex="1">
          <mxGeometry x="-920" y="-130" width="2320" height="480" as="geometry" />
        </mxCell>
        <mxCell id="pp8-QFKgKfyrIBCOwYfq-62" value="" style="rounded=1;whiteSpace=wrap;html=1;fillColor=#fff2cc;strokeColor=#d6b656;direction=east;flipV=0;" parent="1" vertex="1">
          <mxGeometry x="600" width="120" height="240" as="geometry" />
        </mxCell>
        <mxCell id="pp8-QFKgKfyrIBCOwYfq-306" style="edgeStyle=orthogonalEdgeStyle;rounded=0;orthogonalLoop=1;jettySize=auto;html=1;exitX=1;exitY=0.5;exitDx=0;exitDy=0;entryX=1;entryY=0.5;entryDx=0;entryDy=0;" parent="1" source="pp8-QFKgKfyrIBCOwYfq-3" target="pp8-QFKgKfyrIBCOwYfq-8" edge="1">
          <mxGeometry relative="1" as="geometry" />
        </mxCell>
        <mxCell id="pp8-QFKgKfyrIBCOwYfq-308" style="edgeStyle=orthogonalEdgeStyle;rounded=0;orthogonalLoop=1;jettySize=auto;html=1;exitX=1;exitY=0.5;exitDx=0;exitDy=0;entryX=0;entryY=0.5;entryDx=0;entryDy=0;" parent="1" source="pp8-QFKgKfyrIBCOwYfq-3" target="pp8-QFKgKfyrIBCOwYfq-210" edge="1">
          <mxGeometry relative="1" as="geometry">
            <Array as="points">
              <mxPoint x="-540" y="159" />
              <mxPoint x="-540" y="119" />
            </Array>
          </mxGeometry>
        </mxCell>
        <mxCell id="pp8-QFKgKfyrIBCOwYfq-3" value="&lt;b style=&quot;&quot;&gt;&lt;font style=&quot;font-size: 18px;&quot;&gt;PC&lt;/font&gt;&lt;/b&gt;" style="rounded=1;whiteSpace=wrap;html=1;fillColor=#fff2cc;strokeColor=#d6b656;direction=east;flipV=0;fontSize=14;" parent="1" vertex="1">
          <mxGeometry x="-680" y="119" width="120" height="80" as="geometry" />
        </mxCell>
        <mxCell id="pp8-QFKgKfyrIBCOwYfq-307" style="edgeStyle=orthogonalEdgeStyle;rounded=0;orthogonalLoop=1;jettySize=auto;html=1;exitX=0;exitY=0.5;exitDx=0;exitDy=0;entryX=0;entryY=0.5;entryDx=0;entryDy=0;" parent="1" source="pp8-QFKgKfyrIBCOwYfq-8" target="pp8-QFKgKfyrIBCOwYfq-3" edge="1">
          <mxGeometry relative="1" as="geometry" />
        </mxCell>
        <mxCell id="pp8-QFKgKfyrIBCOwYfq-8" value="&lt;b&gt;&lt;font style=&quot;font-size: 18px;&quot;&gt;Predict&lt;/font&gt;&lt;/b&gt;" style="rounded=1;whiteSpace=wrap;html=1;fillColor=#d0cee2;strokeColor=#56517e;direction=east;flipV=0;" parent="1" vertex="1">
          <mxGeometry x="-680" width="120" height="60" as="geometry" />
        </mxCell>
        <mxCell id="pp8-QFKgKfyrIBCOwYfq-310" style="edgeStyle=orthogonalEdgeStyle;rounded=0;orthogonalLoop=1;jettySize=auto;html=1;exitX=1;exitY=0.5;exitDx=0;exitDy=0;entryX=0;entryY=0.5;entryDx=0;entryDy=0;" parent="1" source="pp8-QFKgKfyrIBCOwYfq-14" target="pp8-QFKgKfyrIBCOwYfq-72" edge="1">
          <mxGeometry relative="1" as="geometry" />
        </mxCell>
        <mxCell id="pp8-QFKgKfyrIBCOwYfq-14" value="&lt;b style=&quot;&quot;&gt;&lt;font style=&quot;font-size: 18px;&quot;&gt;ICache&lt;/font&gt;&lt;/b&gt;" style="rounded=1;whiteSpace=wrap;html=1;fillColor=#fad9d5;strokeColor=#ae4132;direction=east;flipV=0;fontSize=14;" parent="1" vertex="1">
          <mxGeometry x="-360" y="79" width="160" height="80" as="geometry" />
        </mxCell>
        <mxCell id="pp8-QFKgKfyrIBCOwYfq-312" style="edgeStyle=orthogonalEdgeStyle;rounded=0;orthogonalLoop=1;jettySize=auto;html=1;exitX=1;exitY=0.5;exitDx=0;exitDy=0;entryX=0;entryY=0.5;entryDx=0;entryDy=0;" parent="1" target="pp8-QFKgKfyrIBCOwYfq-33" edge="1">
          <mxGeometry relative="1" as="geometry">
            <mxPoint x="240" y="120" as="sourcePoint" />
            <Array as="points">
              <mxPoint x="281" y="120" />
              <mxPoint x="281" y="120" />
            </Array>
          </mxGeometry>
        </mxCell>
        <mxCell id="pp8-QFKgKfyrIBCOwYfq-28" value="&lt;b style=&quot;font-size: 18px;&quot;&gt;Previous&lt;br style=&quot;font-size: 18px;&quot;&gt;Decode&lt;/b&gt;" style="rounded=1;whiteSpace=wrap;html=1;fillColor=#d0cee2;strokeColor=#56517e;direction=east;flipV=0;fontSize=18;" parent="1" vertex="1">
          <mxGeometry x="1" y="80" width="120" height="80" as="geometry" />
        </mxCell>
        <mxCell id="pp8-QFKgKfyrIBCOwYfq-33" value="&lt;b&gt;&lt;font style=&quot;font-size: 24px;&quot;&gt;Fetch Queue&lt;/font&gt;&lt;/b&gt;" style="rounded=1;whiteSpace=wrap;html=1;fillColor=#b0e3e6;strokeColor=#0e8088;direction=east;flipV=0;" parent="1" vertex="1">
          <mxGeometry x="320" width="200" height="240" as="geometry" />
        </mxCell>
        <mxCell id="pp8-QFKgKfyrIBCOwYfq-38" value="" style="group;direction=east;flipV=0;" parent="1" vertex="1" connectable="0">
          <mxGeometry x="919" y="-81" width="40" height="400" as="geometry" />
        </mxCell>
        <mxCell id="pp8-QFKgKfyrIBCOwYfq-24" value="" style="rounded=0;whiteSpace=wrap;html=1;fillColor=#f5f5f5;fontColor=#333333;strokeColor=#666666;direction=east;" parent="pp8-QFKgKfyrIBCOwYfq-38" vertex="1">
          <mxGeometry y="1" width="40" height="400" as="geometry" />
        </mxCell>
        <mxCell id="pp8-QFKgKfyrIBCOwYfq-37" value="" style="triangle;whiteSpace=wrap;html=1;rotation=-90;fillColor=#647687;fontColor=#ffffff;strokeColor=#314354;direction=east;" parent="pp8-QFKgKfyrIBCOwYfq-38" vertex="1">
          <mxGeometry y="360" width="40" height="40" as="geometry" />
        </mxCell>
        <mxCell id="pp8-QFKgKfyrIBCOwYfq-39" value="" style="group;direction=east;flipV=0;" parent="1" vertex="1" connectable="0">
          <mxGeometry x="1239" y="-80" width="40" height="400" as="geometry" />
        </mxCell>
        <mxCell id="pp8-QFKgKfyrIBCOwYfq-40" value="" style="rounded=0;whiteSpace=wrap;html=1;fillColor=#f5f5f5;fontColor=#333333;strokeColor=#666666;direction=east;" parent="pp8-QFKgKfyrIBCOwYfq-39" vertex="1">
          <mxGeometry width="40" height="400" as="geometry" />
        </mxCell>
        <mxCell id="pp8-QFKgKfyrIBCOwYfq-41" value="" style="triangle;whiteSpace=wrap;html=1;rotation=-90;fillColor=#647687;fontColor=#ffffff;strokeColor=#314354;direction=east;" parent="pp8-QFKgKfyrIBCOwYfq-39" vertex="1">
          <mxGeometry y="360" width="40" height="40" as="geometry" />
        </mxCell>
        <mxCell id="pp8-QFKgKfyrIBCOwYfq-317" style="edgeStyle=orthogonalEdgeStyle;rounded=0;orthogonalLoop=1;jettySize=auto;html=1;exitX=1;exitY=0.5;exitDx=0;exitDy=0;entryX=0;entryY=0.5;entryDx=0;entryDy=0;" parent="1" source="pp8-QFKgKfyrIBCOwYfq-48" target="pp8-QFKgKfyrIBCOwYfq-63" edge="1">
          <mxGeometry relative="1" as="geometry" />
        </mxCell>
        <mxCell id="pp8-QFKgKfyrIBCOwYfq-48" value="Cluster 1" style="rounded=0;whiteSpace=wrap;html=1;fillColor=#cdeb8b;strokeColor=#36393d;direction=east;flipV=0;fontStyle=1;fontSize=16;" parent="1" vertex="1">
          <mxGeometry x="332" y="20" width="180" height="20" as="geometry" />
        </mxCell>
        <mxCell id="pp8-QFKgKfyrIBCOwYfq-318" style="edgeStyle=orthogonalEdgeStyle;rounded=0;orthogonalLoop=1;jettySize=auto;html=1;exitX=1;exitY=0.5;exitDx=0;exitDy=0;entryX=0;entryY=0.5;entryDx=0;entryDy=0;" parent="1" source="pp8-QFKgKfyrIBCOwYfq-49" target="pp8-QFKgKfyrIBCOwYfq-64" edge="1">
          <mxGeometry relative="1" as="geometry" />
        </mxCell>
        <mxCell id="pp8-QFKgKfyrIBCOwYfq-49" value="Cluster 2" style="rounded=0;whiteSpace=wrap;html=1;fillColor=#cdeb8b;strokeColor=#36393d;direction=east;flipV=0;fontStyle=1;fontSize=16;" parent="1" vertex="1">
          <mxGeometry x="332" y="78" width="180" height="20" as="geometry" />
        </mxCell>
        <mxCell id="pp8-QFKgKfyrIBCOwYfq-319" style="edgeStyle=orthogonalEdgeStyle;rounded=0;orthogonalLoop=1;jettySize=auto;html=1;exitX=1;exitY=0.5;exitDx=0;exitDy=0;entryX=0;entryY=0.5;entryDx=0;entryDy=0;" parent="1" source="pp8-QFKgKfyrIBCOwYfq-50" target="pp8-QFKgKfyrIBCOwYfq-66" edge="1">
          <mxGeometry relative="1" as="geometry" />
        </mxCell>
        <mxCell id="pp8-QFKgKfyrIBCOwYfq-50" value="Cluster 3" style="rounded=0;whiteSpace=wrap;html=1;fillColor=#cdeb8b;strokeColor=#36393d;direction=east;flipV=0;fontStyle=1;fontSize=16;" parent="1" vertex="1">
          <mxGeometry x="332" y="140" width="180" height="20" as="geometry" />
        </mxCell>
        <mxCell id="pp8-QFKgKfyrIBCOwYfq-321" style="edgeStyle=orthogonalEdgeStyle;rounded=0;orthogonalLoop=1;jettySize=auto;html=1;exitX=1;exitY=0.5;exitDx=0;exitDy=0;entryX=0;entryY=0.5;entryDx=0;entryDy=0;" parent="1" source="pp8-QFKgKfyrIBCOwYfq-51" target="pp8-QFKgKfyrIBCOwYfq-65" edge="1">
          <mxGeometry relative="1" as="geometry" />
        </mxCell>
        <mxCell id="pp8-QFKgKfyrIBCOwYfq-51" value="Cluster 4" style="rounded=0;whiteSpace=wrap;html=1;fillColor=#cdeb8b;strokeColor=#36393d;direction=east;flipV=0;fontStyle=1;fontSize=16;" parent="1" vertex="1">
          <mxGeometry x="332" y="198" width="180" height="20" as="geometry" />
        </mxCell>
        <mxCell id="pp8-QFKgKfyrIBCOwYfq-314" style="edgeStyle=orthogonalEdgeStyle;rounded=0;orthogonalLoop=1;jettySize=auto;html=1;exitX=1;exitY=0.5;exitDx=0;exitDy=0;entryX=0;entryY=0.5;entryDx=0;entryDy=0;" parent="1" source="pp8-QFKgKfyrIBCOwYfq-62" target="pp8-QFKgKfyrIBCOwYfq-24" edge="1">
          <mxGeometry relative="1" as="geometry" />
        </mxCell>
        <mxCell id="pp8-QFKgKfyrIBCOwYfq-63" value="&lt;b style=&quot;font-size: 16px;&quot;&gt;Decode 1&lt;/b&gt;" style="rounded=1;whiteSpace=wrap;html=1;fillColor=#fad7ac;strokeColor=#b46504;direction=east;flipV=0;fontSize=16;" parent="1" vertex="1">
          <mxGeometry x="620" y="10" width="80" height="40" as="geometry" />
        </mxCell>
        <mxCell id="pp8-QFKgKfyrIBCOwYfq-64" value="&lt;b style=&quot;font-size: 16px;&quot;&gt;Decode 2&lt;/b&gt;" style="rounded=1;whiteSpace=wrap;html=1;fillColor=#fad7ac;strokeColor=#b46504;direction=east;flipV=0;fontSize=16;" parent="1" vertex="1">
          <mxGeometry x="620" y="69" width="80" height="38" as="geometry" />
        </mxCell>
        <mxCell id="pp8-QFKgKfyrIBCOwYfq-65" value="&lt;b style=&quot;font-size: 16px;&quot;&gt;Decode 4&lt;/b&gt;" style="rounded=1;whiteSpace=wrap;html=1;fillColor=#fad7ac;strokeColor=#b46504;direction=east;flipV=0;fontSize=16;" parent="1" vertex="1">
          <mxGeometry x="620" y="188" width="80" height="40" as="geometry" />
        </mxCell>
        <mxCell id="pp8-QFKgKfyrIBCOwYfq-66" value="&lt;b style=&quot;font-size: 16px;&quot;&gt;Decode 3&lt;/b&gt;" style="rounded=1;whiteSpace=wrap;html=1;fillColor=#fad7ac;strokeColor=#b46504;direction=east;flipV=0;fontSize=16;" parent="1" vertex="1">
          <mxGeometry x="620" y="130" width="80" height="40" as="geometry" />
        </mxCell>
        <mxCell id="pp8-QFKgKfyrIBCOwYfq-71" value="" style="group;direction=east;flipV=0;" parent="1" vertex="1" connectable="0">
          <mxGeometry x="-120" y="-80" width="40" height="400" as="geometry" />
        </mxCell>
        <mxCell id="pp8-QFKgKfyrIBCOwYfq-72" value="" style="rounded=0;whiteSpace=wrap;html=1;fillColor=#f5f5f5;fontColor=#333333;strokeColor=#666666;direction=east;" parent="pp8-QFKgKfyrIBCOwYfq-71" vertex="1">
          <mxGeometry width="40" height="400" as="geometry" />
        </mxCell>
        <mxCell id="pp8-QFKgKfyrIBCOwYfq-73" value="" style="triangle;whiteSpace=wrap;html=1;rotation=-90;fillColor=#647687;fontColor=#ffffff;strokeColor=#314354;direction=east;" parent="pp8-QFKgKfyrIBCOwYfq-71" vertex="1">
          <mxGeometry y="360" width="40" height="40" as="geometry" />
        </mxCell>
        <mxCell id="pp8-QFKgKfyrIBCOwYfq-316" style="edgeStyle=orthogonalEdgeStyle;rounded=0;orthogonalLoop=1;jettySize=auto;html=1;exitX=1;exitY=0.5;exitDx=0;exitDy=0;entryX=0;entryY=0.5;entryDx=0;entryDy=0;" parent="1" source="pp8-QFKgKfyrIBCOwYfq-80" target="pp8-QFKgKfyrIBCOwYfq-40" edge="1">
          <mxGeometry relative="1" as="geometry" />
        </mxCell>
        <mxCell id="pp8-QFKgKfyrIBCOwYfq-80" value="&lt;b&gt;&lt;font style=&quot;font-size: 24px;&quot;&gt;Rename&lt;/font&gt;&lt;/b&gt;" style="rounded=1;whiteSpace=wrap;html=1;fillColor=#ffff88;strokeColor=#36393d;direction=east;flipV=0;" parent="1" vertex="1">
          <mxGeometry x="1038.5" width="120" height="240" as="geometry" />
        </mxCell>
        <mxCell id="pp8-QFKgKfyrIBCOwYfq-83" value="&lt;b style=&quot;font-size: 16px;&quot;&gt;CRat&lt;/b&gt;" style="rounded=1;whiteSpace=wrap;html=1;fillColor=#f8cecc;strokeColor=#b85450;direction=east;flipV=0;fontSize=16;" parent="1" vertex="1">
          <mxGeometry x="1058.5" y="155" width="80" height="65" as="geometry" />
        </mxCell>
        <mxCell id="OY7V5wZrcTOGdJZJS2dS-12" value="" style="edgeStyle=orthogonalEdgeStyle;rounded=0;orthogonalLoop=1;jettySize=auto;html=1;" parent="1" edge="1">
          <mxGeometry relative="1" as="geometry">
            <mxPoint x="840" y="40" as="sourcePoint" />
            <mxPoint x="918" y="40" as="targetPoint" />
            <Array as="points">
              <mxPoint x="918" y="40" />
            </Array>
          </mxGeometry>
        </mxCell>
        <mxCell id="pp8-QFKgKfyrIBCOwYfq-84" value="&lt;b style=&quot;font-size: 16px;&quot;&gt;&lt;font style=&quot;font-size: 16px;&quot;&gt;Free List&lt;/font&gt;&lt;/b&gt;" style="rounded=1;whiteSpace=wrap;html=1;fillColor=#cdeb8b;strokeColor=#36393d;direction=east;flipV=0;fontSize=16;" parent="1" vertex="1">
          <mxGeometry x="760" y="-1" width="80" height="80" as="geometry" />
        </mxCell>
        <mxCell id="pp8-QFKgKfyrIBCOwYfq-107" style="edgeStyle=orthogonalEdgeStyle;rounded=0;orthogonalLoop=1;jettySize=auto;html=1;exitX=1;exitY=0.5;exitDx=0;exitDy=0;entryX=0;entryY=0.5;entryDx=0;entryDy=0;" parent="1" source="pp8-QFKgKfyrIBCOwYfq-94" target="pp8-QFKgKfyrIBCOwYfq-100" edge="1">
          <mxGeometry relative="1" as="geometry">
            <Array as="points">
              <mxPoint x="-600" y="1001" />
              <mxPoint x="-600" y="599" />
            </Array>
          </mxGeometry>
        </mxCell>
        <mxCell id="pp8-QFKgKfyrIBCOwYfq-109" style="edgeStyle=orthogonalEdgeStyle;rounded=0;orthogonalLoop=1;jettySize=auto;html=1;exitX=1;exitY=0.5;exitDx=0;exitDy=0;entryX=0;entryY=0.5;entryDx=0;entryDy=0;" parent="1" source="pp8-QFKgKfyrIBCOwYfq-94" target="pp8-QFKgKfyrIBCOwYfq-102" edge="1">
          <mxGeometry relative="1" as="geometry" />
        </mxCell>
        <mxCell id="pp8-QFKgKfyrIBCOwYfq-110" style="edgeStyle=orthogonalEdgeStyle;rounded=0;orthogonalLoop=1;jettySize=auto;html=1;exitX=1;exitY=0.5;exitDx=0;exitDy=0;entryX=0;entryY=0.5;entryDx=0;entryDy=0;" parent="1" source="pp8-QFKgKfyrIBCOwYfq-94" target="pp8-QFKgKfyrIBCOwYfq-103" edge="1">
          <mxGeometry relative="1" as="geometry">
            <Array as="points">
              <mxPoint x="-600" y="1001" />
              <mxPoint x="-600" y="1200" />
            </Array>
          </mxGeometry>
        </mxCell>
        <mxCell id="pp8-QFKgKfyrIBCOwYfq-111" style="edgeStyle=orthogonalEdgeStyle;rounded=0;orthogonalLoop=1;jettySize=auto;html=1;exitX=1;exitY=0.5;exitDx=0;exitDy=0;entryX=0;entryY=0.5;entryDx=0;entryDy=0;" parent="1" source="pp8-QFKgKfyrIBCOwYfq-94" target="pp8-QFKgKfyrIBCOwYfq-104" edge="1">
          <mxGeometry relative="1" as="geometry">
            <Array as="points">
              <mxPoint x="-600" y="1001" />
              <mxPoint x="-600" y="1399" />
            </Array>
          </mxGeometry>
        </mxCell>
        <mxCell id="pp8-QFKgKfyrIBCOwYfq-168" style="edgeStyle=orthogonalEdgeStyle;rounded=0;orthogonalLoop=1;jettySize=auto;html=1;exitX=1;exitY=0.5;exitDx=0;exitDy=0;entryX=0;entryY=0.5;entryDx=0;entryDy=0;" parent="1" source="pp8-QFKgKfyrIBCOwYfq-94" target="pp8-QFKgKfyrIBCOwYfq-101" edge="1">
          <mxGeometry relative="1" as="geometry">
            <Array as="points">
              <mxPoint x="-600" y="1001" />
              <mxPoint x="-600" y="799" />
            </Array>
          </mxGeometry>
        </mxCell>
        <mxCell id="pp8-QFKgKfyrIBCOwYfq-94" value="&lt;b&gt;&lt;font style=&quot;font-size: 24px;&quot;&gt;Dispatch&lt;/font&gt;&lt;/b&gt;" style="rounded=1;whiteSpace=wrap;html=1;fillColor=#e1d5e7;strokeColor=#9673a6;" parent="1" vertex="1">
          <mxGeometry x="-784.5" y="840.5" width="120" height="320" as="geometry" />
        </mxCell>
        <mxCell id="pp8-QFKgKfyrIBCOwYfq-97" value="" style="endArrow=none;html=1;rounded=0;" parent="1" edge="1">
          <mxGeometry width="50" height="50" relative="1" as="geometry">
            <mxPoint x="-812" y="1005" as="sourcePoint" />
            <mxPoint x="-802" y="995" as="targetPoint" />
          </mxGeometry>
        </mxCell>
        <mxCell id="pp8-QFKgKfyrIBCOwYfq-98" value="4" style="text;html=1;align=center;verticalAlign=middle;resizable=0;points=[];autosize=1;strokeColor=none;fillColor=none;" parent="1" vertex="1">
          <mxGeometry x="-821" y="996" width="30" height="30" as="geometry" />
        </mxCell>
        <mxCell id="pp8-QFKgKfyrIBCOwYfq-99" value="pack_RN" style="text;html=1;align=center;verticalAlign=middle;resizable=0;points=[];autosize=1;strokeColor=none;fillColor=none;fontStyle=1;fontSize=14;" parent="1" vertex="1">
          <mxGeometry x="-880" y="975" width="80" height="30" as="geometry" />
        </mxCell>
        <mxCell id="pp8-QFKgKfyrIBCOwYfq-125" style="edgeStyle=orthogonalEdgeStyle;rounded=0;orthogonalLoop=1;jettySize=auto;html=1;exitX=1;exitY=0.5;exitDx=0;exitDy=0;entryX=0;entryY=0.5;entryDx=0;entryDy=0;" parent="1" source="pp8-QFKgKfyrIBCOwYfq-100" target="pp8-QFKgKfyrIBCOwYfq-119" edge="1">
          <mxGeometry relative="1" as="geometry" />
        </mxCell>
        <mxCell id="pp8-QFKgKfyrIBCOwYfq-100" value="&lt;b style=&quot;font-size: 16px;&quot;&gt;&lt;font style=&quot;font-size: 16px;&quot;&gt;Arith Issue Queue&lt;/font&gt;&lt;/b&gt;" style="rounded=0;whiteSpace=wrap;html=1;fillColor=#f8cecc;strokeColor=#b85450;fontSize=16;" parent="1" vertex="1">
          <mxGeometry x="-480" y="580" width="241" height="40" as="geometry" />
        </mxCell>
        <mxCell id="pp8-QFKgKfyrIBCOwYfq-129" style="edgeStyle=orthogonalEdgeStyle;rounded=0;orthogonalLoop=1;jettySize=auto;html=1;exitX=1;exitY=0.5;exitDx=0;exitDy=0;entryX=0;entryY=0.5;entryDx=0;entryDy=0;" parent="1" source="pp8-QFKgKfyrIBCOwYfq-101" target="pp8-QFKgKfyrIBCOwYfq-120" edge="1">
          <mxGeometry relative="1" as="geometry" />
        </mxCell>
        <mxCell id="pp8-QFKgKfyrIBCOwYfq-101" value="&lt;b style=&quot;border-color: var(--border-color); font-size: 16px;&quot;&gt;Arith Issue Queue&lt;/b&gt;" style="rounded=0;whiteSpace=wrap;html=1;fillColor=#f8cecc;strokeColor=#b85450;fontSize=16;" parent="1" vertex="1">
          <mxGeometry x="-480" y="780" width="241" height="40" as="geometry" />
        </mxCell>
        <mxCell id="pp8-QFKgKfyrIBCOwYfq-131" style="edgeStyle=orthogonalEdgeStyle;rounded=0;orthogonalLoop=1;jettySize=auto;html=1;exitX=1;exitY=0.5;exitDx=0;exitDy=0;entryX=0;entryY=0.5;entryDx=0;entryDy=0;" parent="1" source="pp8-QFKgKfyrIBCOwYfq-102" target="pp8-QFKgKfyrIBCOwYfq-121" edge="1">
          <mxGeometry relative="1" as="geometry" />
        </mxCell>
        <mxCell id="pp8-QFKgKfyrIBCOwYfq-102" value="&lt;b style=&quot;border-color: var(--border-color); font-size: 16px;&quot;&gt;Arith &amp;amp; Br Issue Queue&lt;/b&gt;" style="rounded=0;whiteSpace=wrap;html=1;fillColor=#f8cecc;strokeColor=#b85450;fontSize=16;" parent="1" vertex="1">
          <mxGeometry x="-480" y="980" width="241" height="40" as="geometry" />
        </mxCell>
        <mxCell id="pp8-QFKgKfyrIBCOwYfq-133" style="edgeStyle=orthogonalEdgeStyle;rounded=0;orthogonalLoop=1;jettySize=auto;html=1;exitX=1;exitY=0.5;exitDx=0;exitDy=0;entryX=0;entryY=0.5;entryDx=0;entryDy=0;" parent="1" source="pp8-QFKgKfyrIBCOwYfq-103" target="pp8-QFKgKfyrIBCOwYfq-122" edge="1">
          <mxGeometry relative="1" as="geometry" />
        </mxCell>
        <mxCell id="pp8-QFKgKfyrIBCOwYfq-103" value="&lt;b style=&quot;font-size: 16px;&quot;&gt;Mul &amp;amp; Div Issue Queue&lt;/b&gt;" style="rounded=0;whiteSpace=wrap;html=1;fillColor=#f8cecc;strokeColor=#b85450;fontSize=16;" parent="1" vertex="1">
          <mxGeometry x="-480" y="1180" width="241" height="40" as="geometry" />
        </mxCell>
        <mxCell id="pp8-QFKgKfyrIBCOwYfq-135" style="edgeStyle=orthogonalEdgeStyle;rounded=0;orthogonalLoop=1;jettySize=auto;html=1;exitX=1;exitY=0.5;exitDx=0;exitDy=0;entryX=0;entryY=0.5;entryDx=0;entryDy=0;" parent="1" source="pp8-QFKgKfyrIBCOwYfq-104" target="pp8-QFKgKfyrIBCOwYfq-123" edge="1">
          <mxGeometry relative="1" as="geometry" />
        </mxCell>
        <mxCell id="pp8-QFKgKfyrIBCOwYfq-104" value="&lt;b style=&quot;font-size: 16px;&quot;&gt;Load &amp;amp; Store Issue Quue&lt;/b&gt;" style="rounded=0;whiteSpace=wrap;html=1;fillColor=#f8cecc;strokeColor=#b85450;fontSize=16;" parent="1" vertex="1">
          <mxGeometry x="-480" y="1379" width="241" height="40" as="geometry" />
        </mxCell>
        <mxCell id="pp8-QFKgKfyrIBCOwYfq-105" value="&lt;font style=&quot;font-size: 16px;&quot;&gt;&lt;b style=&quot;font-size: 16px;&quot;&gt;Busy Board&lt;/b&gt;&lt;/font&gt;" style="rounded=1;whiteSpace=wrap;html=1;fillColor=#b1ddf0;strokeColor=#10739e;fontSize=16;" parent="1" vertex="1">
          <mxGeometry x="-770" y="1052" width="89" height="95" as="geometry" />
        </mxCell>
        <mxCell id="pp8-QFKgKfyrIBCOwYfq-127" style="edgeStyle=orthogonalEdgeStyle;rounded=0;orthogonalLoop=1;jettySize=auto;html=1;exitX=0.5;exitY=0;exitDx=0;exitDy=0;entryX=0.75;entryY=0;entryDx=0;entryDy=0;" parent="1" source="pp8-QFKgKfyrIBCOwYfq-119" target="pp8-QFKgKfyrIBCOwYfq-100" edge="1">
          <mxGeometry relative="1" as="geometry" />
        </mxCell>
        <mxCell id="pp8-QFKgKfyrIBCOwYfq-163" style="edgeStyle=orthogonalEdgeStyle;rounded=0;orthogonalLoop=1;jettySize=auto;html=1;exitX=1;exitY=0.5;exitDx=0;exitDy=0;entryX=0;entryY=0.5;entryDx=0;entryDy=0;" parent="1" source="pp8-QFKgKfyrIBCOwYfq-119" target="pp8-QFKgKfyrIBCOwYfq-147" edge="1">
          <mxGeometry relative="1" as="geometry" />
        </mxCell>
        <mxCell id="pp8-QFKgKfyrIBCOwYfq-119" value="Unorder Select" style="rounded=1;whiteSpace=wrap;html=1;fontStyle=1;fillColor=#ffe6cc;strokeColor=#d79b00;fontSize=16;" parent="1" vertex="1">
          <mxGeometry x="-159" y="560.5" width="120" height="79" as="geometry" />
        </mxCell>
        <mxCell id="pp8-QFKgKfyrIBCOwYfq-128" style="edgeStyle=orthogonalEdgeStyle;rounded=0;orthogonalLoop=1;jettySize=auto;html=1;exitX=0.5;exitY=0;exitDx=0;exitDy=0;entryX=0.75;entryY=0;entryDx=0;entryDy=0;" parent="1" source="pp8-QFKgKfyrIBCOwYfq-120" target="pp8-QFKgKfyrIBCOwYfq-101" edge="1">
          <mxGeometry relative="1" as="geometry" />
        </mxCell>
        <mxCell id="pp8-QFKgKfyrIBCOwYfq-164" style="edgeStyle=orthogonalEdgeStyle;rounded=0;orthogonalLoop=1;jettySize=auto;html=1;exitX=1;exitY=0.5;exitDx=0;exitDy=0;entryX=0;entryY=0.5;entryDx=0;entryDy=0;" parent="1" source="pp8-QFKgKfyrIBCOwYfq-120" target="pp8-QFKgKfyrIBCOwYfq-152" edge="1">
          <mxGeometry relative="1" as="geometry" />
        </mxCell>
        <mxCell id="pp8-QFKgKfyrIBCOwYfq-120" value="Unorder Select" style="rounded=1;whiteSpace=wrap;html=1;fontStyle=1;fillColor=#ffe6cc;strokeColor=#d79b00;fontSize=16;" parent="1" vertex="1">
          <mxGeometry x="-160" y="760.5" width="120" height="79" as="geometry" />
        </mxCell>
        <mxCell id="pp8-QFKgKfyrIBCOwYfq-130" style="edgeStyle=orthogonalEdgeStyle;rounded=0;orthogonalLoop=1;jettySize=auto;html=1;exitX=0.5;exitY=0;exitDx=0;exitDy=0;entryX=0.75;entryY=0;entryDx=0;entryDy=0;" parent="1" source="pp8-QFKgKfyrIBCOwYfq-121" target="pp8-QFKgKfyrIBCOwYfq-102" edge="1">
          <mxGeometry relative="1" as="geometry" />
        </mxCell>
        <mxCell id="pp8-QFKgKfyrIBCOwYfq-165" style="edgeStyle=orthogonalEdgeStyle;rounded=0;orthogonalLoop=1;jettySize=auto;html=1;exitX=1;exitY=0.5;exitDx=0;exitDy=0;entryX=0;entryY=0.5;entryDx=0;entryDy=0;" parent="1" source="pp8-QFKgKfyrIBCOwYfq-121" target="pp8-QFKgKfyrIBCOwYfq-155" edge="1">
          <mxGeometry relative="1" as="geometry" />
        </mxCell>
        <mxCell id="pp8-QFKgKfyrIBCOwYfq-121" value="Unorder Select" style="rounded=1;whiteSpace=wrap;html=1;fontStyle=1;fillColor=#ffe6cc;strokeColor=#d79b00;fontSize=16;" parent="1" vertex="1">
          <mxGeometry x="-160" y="960.5" width="120" height="79" as="geometry" />
        </mxCell>
        <mxCell id="pp8-QFKgKfyrIBCOwYfq-132" style="edgeStyle=orthogonalEdgeStyle;rounded=0;orthogonalLoop=1;jettySize=auto;html=1;exitX=0.5;exitY=0;exitDx=0;exitDy=0;entryX=0.75;entryY=0;entryDx=0;entryDy=0;" parent="1" source="pp8-QFKgKfyrIBCOwYfq-122" target="pp8-QFKgKfyrIBCOwYfq-103" edge="1">
          <mxGeometry relative="1" as="geometry" />
        </mxCell>
        <mxCell id="pp8-QFKgKfyrIBCOwYfq-166" style="edgeStyle=orthogonalEdgeStyle;rounded=0;orthogonalLoop=1;jettySize=auto;html=1;exitX=1;exitY=0.5;exitDx=0;exitDy=0;" parent="1" source="pp8-QFKgKfyrIBCOwYfq-122" target="pp8-QFKgKfyrIBCOwYfq-158" edge="1">
          <mxGeometry relative="1" as="geometry" />
        </mxCell>
        <mxCell id="pp8-QFKgKfyrIBCOwYfq-122" value="Order Select" style="rounded=1;whiteSpace=wrap;html=1;fontStyle=1;fillColor=#ffe6cc;strokeColor=#d79b00;fontSize=16;" parent="1" vertex="1">
          <mxGeometry x="-159" y="1160.5" width="120" height="79" as="geometry" />
        </mxCell>
        <mxCell id="pp8-QFKgKfyrIBCOwYfq-134" style="edgeStyle=orthogonalEdgeStyle;rounded=0;orthogonalLoop=1;jettySize=auto;html=1;exitX=0.5;exitY=0;exitDx=0;exitDy=0;entryX=0.75;entryY=0;entryDx=0;entryDy=0;" parent="1" source="pp8-QFKgKfyrIBCOwYfq-123" target="pp8-QFKgKfyrIBCOwYfq-104" edge="1">
          <mxGeometry relative="1" as="geometry" />
        </mxCell>
        <mxCell id="pp8-QFKgKfyrIBCOwYfq-167" style="edgeStyle=orthogonalEdgeStyle;rounded=0;orthogonalLoop=1;jettySize=auto;html=1;exitX=1;exitY=0.5;exitDx=0;exitDy=0;" parent="1" source="pp8-QFKgKfyrIBCOwYfq-123" target="pp8-QFKgKfyrIBCOwYfq-161" edge="1">
          <mxGeometry relative="1" as="geometry" />
        </mxCell>
        <mxCell id="pp8-QFKgKfyrIBCOwYfq-123" value="Unorder Select" style="rounded=1;whiteSpace=wrap;html=1;fontStyle=1;fillColor=#ffe6cc;strokeColor=#d79b00;fontSize=16;" parent="1" vertex="1">
          <mxGeometry x="-160" y="1360.5" width="120" height="79" as="geometry" />
        </mxCell>
        <mxCell id="pp8-QFKgKfyrIBCOwYfq-136" value="req" style="text;html=1;align=center;verticalAlign=middle;resizable=0;points=[];autosize=1;strokeColor=none;fillColor=none;fontStyle=1;fontSize=14;" parent="1" vertex="1">
          <mxGeometry x="-224" y="575" width="50" height="30" as="geometry" />
        </mxCell>
        <mxCell id="pp8-QFKgKfyrIBCOwYfq-137" value="ack" style="text;html=1;align=center;verticalAlign=middle;resizable=0;points=[];autosize=1;strokeColor=none;fillColor=none;fontStyle=1;fontSize=14;" parent="1" vertex="1">
          <mxGeometry x="-224" y="516.5" width="50" height="30" as="geometry" />
        </mxCell>
        <mxCell id="pp8-QFKgKfyrIBCOwYfq-138" value="req" style="text;html=1;align=center;verticalAlign=middle;resizable=0;points=[];autosize=1;strokeColor=none;fillColor=none;fontStyle=1;fontSize=14;" parent="1" vertex="1">
          <mxGeometry x="-223" y="775" width="50" height="30" as="geometry" />
        </mxCell>
        <mxCell id="pp8-QFKgKfyrIBCOwYfq-139" value="ack" style="text;html=1;align=center;verticalAlign=middle;resizable=0;points=[];autosize=1;strokeColor=none;fillColor=none;fontStyle=1;fontSize=14;" parent="1" vertex="1">
          <mxGeometry x="-224" y="715" width="50" height="30" as="geometry" />
        </mxCell>
        <mxCell id="pp8-QFKgKfyrIBCOwYfq-140" value="req" style="text;html=1;align=center;verticalAlign=middle;resizable=0;points=[];autosize=1;strokeColor=none;fillColor=none;fontStyle=1;fontSize=14;" parent="1" vertex="1">
          <mxGeometry x="-225" y="975" width="50" height="30" as="geometry" />
        </mxCell>
        <mxCell id="pp8-QFKgKfyrIBCOwYfq-141" value="ack" style="text;html=1;align=center;verticalAlign=middle;resizable=0;points=[];autosize=1;strokeColor=none;fillColor=none;fontStyle=1;fontSize=14;" parent="1" vertex="1">
          <mxGeometry x="-226" y="915" width="50" height="30" as="geometry" />
        </mxCell>
        <mxCell id="pp8-QFKgKfyrIBCOwYfq-142" value="req" style="text;html=1;align=center;verticalAlign=middle;resizable=0;points=[];autosize=1;strokeColor=none;fillColor=none;fontStyle=1;fontSize=14;" parent="1" vertex="1">
          <mxGeometry x="-222" y="1177" width="50" height="30" as="geometry" />
        </mxCell>
        <mxCell id="pp8-QFKgKfyrIBCOwYfq-143" value="ack" style="text;html=1;align=center;verticalAlign=middle;resizable=0;points=[];autosize=1;strokeColor=none;fillColor=none;fontStyle=1;fontSize=14;" parent="1" vertex="1">
          <mxGeometry x="-223" y="1117" width="50" height="30" as="geometry" />
        </mxCell>
        <mxCell id="pp8-QFKgKfyrIBCOwYfq-144" value="req" style="text;html=1;align=center;verticalAlign=middle;resizable=0;points=[];autosize=1;strokeColor=none;fillColor=none;fontStyle=1;fontSize=14;" parent="1" vertex="1">
          <mxGeometry x="-221" y="1376" width="50" height="30" as="geometry" />
        </mxCell>
        <mxCell id="pp8-QFKgKfyrIBCOwYfq-145" value="ack" style="text;html=1;align=center;verticalAlign=middle;resizable=0;points=[];autosize=1;strokeColor=none;fillColor=none;fontStyle=1;fontSize=14;" parent="1" vertex="1">
          <mxGeometry x="-222" y="1316" width="50" height="30" as="geometry" />
        </mxCell>
        <mxCell id="pp8-QFKgKfyrIBCOwYfq-150" value="" style="group" parent="1" vertex="1" connectable="0">
          <mxGeometry x="40" y="520" width="40" height="160" as="geometry" />
        </mxCell>
        <mxCell id="pp8-QFKgKfyrIBCOwYfq-147" value="" style="rounded=0;whiteSpace=wrap;html=1;fillColor=#f5f5f5;fontColor=#333333;strokeColor=#666666;" parent="pp8-QFKgKfyrIBCOwYfq-150" vertex="1">
          <mxGeometry width="40" height="160" as="geometry" />
        </mxCell>
        <mxCell id="pp8-QFKgKfyrIBCOwYfq-149" value="" style="triangle;whiteSpace=wrap;html=1;rotation=-90;fillColor=#647687;fontColor=#ffffff;strokeColor=#314354;" parent="pp8-QFKgKfyrIBCOwYfq-150" vertex="1">
          <mxGeometry y="120" width="40" height="40" as="geometry" />
        </mxCell>
        <mxCell id="pp8-QFKgKfyrIBCOwYfq-151" value="" style="group" parent="1" vertex="1" connectable="0">
          <mxGeometry x="40" y="720" width="40" height="160" as="geometry" />
        </mxCell>
        <mxCell id="pp8-QFKgKfyrIBCOwYfq-152" value="" style="rounded=0;whiteSpace=wrap;html=1;fillColor=#f5f5f5;fontColor=#333333;strokeColor=#666666;" parent="pp8-QFKgKfyrIBCOwYfq-151" vertex="1">
          <mxGeometry width="40" height="160" as="geometry" />
        </mxCell>
        <mxCell id="pp8-QFKgKfyrIBCOwYfq-153" value="" style="triangle;whiteSpace=wrap;html=1;rotation=-90;fillColor=#647687;fontColor=#ffffff;strokeColor=#314354;" parent="pp8-QFKgKfyrIBCOwYfq-151" vertex="1">
          <mxGeometry y="120" width="40" height="40" as="geometry" />
        </mxCell>
        <mxCell id="pp8-QFKgKfyrIBCOwYfq-154" value="" style="group" parent="1" vertex="1" connectable="0">
          <mxGeometry x="40" y="920" width="40" height="160" as="geometry" />
        </mxCell>
        <mxCell id="pp8-QFKgKfyrIBCOwYfq-155" value="" style="rounded=0;whiteSpace=wrap;html=1;fillColor=#f5f5f5;fontColor=#333333;strokeColor=#666666;" parent="pp8-QFKgKfyrIBCOwYfq-154" vertex="1">
          <mxGeometry width="40" height="160" as="geometry" />
        </mxCell>
        <mxCell id="pp8-QFKgKfyrIBCOwYfq-156" value="" style="triangle;whiteSpace=wrap;html=1;rotation=-90;fillColor=#647687;fontColor=#ffffff;strokeColor=#314354;" parent="pp8-QFKgKfyrIBCOwYfq-154" vertex="1">
          <mxGeometry y="120" width="40" height="40" as="geometry" />
        </mxCell>
        <mxCell id="pp8-QFKgKfyrIBCOwYfq-157" value="" style="group" parent="1" vertex="1" connectable="0">
          <mxGeometry x="40" y="1120" width="40" height="160" as="geometry" />
        </mxCell>
        <mxCell id="pp8-QFKgKfyrIBCOwYfq-158" value="" style="rounded=0;whiteSpace=wrap;html=1;fillColor=#f5f5f5;fontColor=#333333;strokeColor=#666666;" parent="pp8-QFKgKfyrIBCOwYfq-157" vertex="1">
          <mxGeometry width="40" height="160" as="geometry" />
        </mxCell>
        <mxCell id="pp8-QFKgKfyrIBCOwYfq-159" value="" style="triangle;whiteSpace=wrap;html=1;rotation=-90;fillColor=#647687;fontColor=#ffffff;strokeColor=#314354;" parent="pp8-QFKgKfyrIBCOwYfq-157" vertex="1">
          <mxGeometry y="120" width="40" height="40" as="geometry" />
        </mxCell>
        <mxCell id="pp8-QFKgKfyrIBCOwYfq-160" value="" style="group" parent="1" vertex="1" connectable="0">
          <mxGeometry x="40" y="1320" width="40" height="160" as="geometry" />
        </mxCell>
        <mxCell id="pp8-QFKgKfyrIBCOwYfq-161" value="" style="rounded=0;whiteSpace=wrap;html=1;fillColor=#f5f5f5;fontColor=#333333;strokeColor=#666666;" parent="pp8-QFKgKfyrIBCOwYfq-160" vertex="1">
          <mxGeometry width="40" height="160" as="geometry" />
        </mxCell>
        <mxCell id="pp8-QFKgKfyrIBCOwYfq-162" value="" style="triangle;whiteSpace=wrap;html=1;rotation=-90;fillColor=#647687;fontColor=#ffffff;strokeColor=#314354;" parent="pp8-QFKgKfyrIBCOwYfq-160" vertex="1">
          <mxGeometry y="120" width="40" height="40" as="geometry" />
        </mxCell>
        <mxCell id="pp8-QFKgKfyrIBCOwYfq-169" value="pack_IS" style="text;html=1;align=center;verticalAlign=middle;resizable=0;points=[];autosize=1;strokeColor=none;fillColor=none;fontStyle=1;fontSize=14;" parent="1" vertex="1">
          <mxGeometry x="-39" y="575" width="80" height="30" as="geometry" />
        </mxCell>
        <mxCell id="pp8-QFKgKfyrIBCOwYfq-203" style="edgeStyle=orthogonalEdgeStyle;rounded=0;orthogonalLoop=1;jettySize=auto;html=1;exitX=1;exitY=0.5;exitDx=0;exitDy=0;entryX=0;entryY=0.5;entryDx=0;entryDy=0;" parent="1" source="pp8-QFKgKfyrIBCOwYfq-175" target="pp8-QFKgKfyrIBCOwYfq-189" edge="1">
          <mxGeometry relative="1" as="geometry" />
        </mxCell>
        <mxCell id="pp8-QFKgKfyrIBCOwYfq-175" value="&lt;b style=&quot;font-size: 16px;&quot;&gt;RegFile Read&lt;/b&gt;" style="rounded=1;whiteSpace=wrap;html=1;fillColor=#fff2cc;strokeColor=#d6b656;fontSize=16;" parent="1" vertex="1">
          <mxGeometry x="160" y="560.5" width="160" height="80" as="geometry" />
        </mxCell>
        <mxCell id="pp8-QFKgKfyrIBCOwYfq-179" value="&lt;b style=&quot;font-size: 16px;&quot;&gt;RegFile Read&lt;/b&gt;" style="rounded=1;whiteSpace=wrap;html=1;fillColor=#fff2cc;strokeColor=#d6b656;fontSize=16;" parent="1" vertex="1">
          <mxGeometry x="160" y="735" width="160" height="49.5" as="geometry" />
        </mxCell>
        <mxCell id="pp8-QFKgKfyrIBCOwYfq-205" style="edgeStyle=orthogonalEdgeStyle;rounded=0;orthogonalLoop=1;jettySize=auto;html=1;exitX=1;exitY=0.5;exitDx=0;exitDy=0;entryX=0;entryY=0.5;entryDx=0;entryDy=0;" parent="1" source="pp8-QFKgKfyrIBCOwYfq-180" target="pp8-QFKgKfyrIBCOwYfq-195" edge="1">
          <mxGeometry relative="1" as="geometry" />
        </mxCell>
        <mxCell id="pp8-QFKgKfyrIBCOwYfq-180" value="&lt;b style=&quot;font-size: 16px;&quot;&gt;RegFile Read&lt;/b&gt;" style="rounded=1;whiteSpace=wrap;html=1;fillColor=#fff2cc;strokeColor=#d6b656;fontSize=16;" parent="1" vertex="1">
          <mxGeometry x="160" y="960" width="160" height="80" as="geometry" />
        </mxCell>
        <mxCell id="pp8-QFKgKfyrIBCOwYfq-206" style="edgeStyle=orthogonalEdgeStyle;rounded=0;orthogonalLoop=1;jettySize=auto;html=1;exitX=1;exitY=0.5;exitDx=0;exitDy=0;entryX=0;entryY=0.5;entryDx=0;entryDy=0;" parent="1" source="pp8-QFKgKfyrIBCOwYfq-181" target="pp8-QFKgKfyrIBCOwYfq-198" edge="1">
          <mxGeometry relative="1" as="geometry" />
        </mxCell>
        <mxCell id="pp8-QFKgKfyrIBCOwYfq-181" value="&lt;b style=&quot;font-size: 16px;&quot;&gt;RegFile Read&lt;/b&gt;" style="rounded=1;whiteSpace=wrap;html=1;fillColor=#fff2cc;strokeColor=#d6b656;fontSize=16;" parent="1" vertex="1">
          <mxGeometry x="160" y="1160" width="160" height="80" as="geometry" />
        </mxCell>
        <mxCell id="pp8-QFKgKfyrIBCOwYfq-256" style="edgeStyle=orthogonalEdgeStyle;rounded=0;orthogonalLoop=1;jettySize=auto;html=1;exitX=1;exitY=0.5;exitDx=0;exitDy=0;entryX=0;entryY=0;entryDx=0;entryDy=0;" parent="1" source="pp8-QFKgKfyrIBCOwYfq-182" target="pp8-QFKgKfyrIBCOwYfq-255" edge="1">
          <mxGeometry relative="1" as="geometry">
            <Array as="points">
              <mxPoint x="240" y="1399" />
              <mxPoint x="240" y="1386" />
            </Array>
          </mxGeometry>
        </mxCell>
        <mxCell id="pp8-QFKgKfyrIBCOwYfq-182" value="&lt;b style=&quot;font-size: 16px;&quot;&gt;RegFile Read&lt;/b&gt;" style="rounded=1;whiteSpace=wrap;html=1;fillColor=#fff2cc;strokeColor=#d6b656;fontSize=16;" parent="1" vertex="1">
          <mxGeometry x="130" y="1360.5" width="99" height="80" as="geometry" />
        </mxCell>
        <mxCell id="pp8-QFKgKfyrIBCOwYfq-183" style="edgeStyle=orthogonalEdgeStyle;rounded=0;orthogonalLoop=1;jettySize=auto;html=1;exitX=1;exitY=0.5;exitDx=0;exitDy=0;" parent="1" source="pp8-QFKgKfyrIBCOwYfq-147" target="pp8-QFKgKfyrIBCOwYfq-175" edge="1">
          <mxGeometry relative="1" as="geometry" />
        </mxCell>
        <mxCell id="pp8-QFKgKfyrIBCOwYfq-185" style="edgeStyle=orthogonalEdgeStyle;rounded=0;orthogonalLoop=1;jettySize=auto;html=1;exitX=1;exitY=0.5;exitDx=0;exitDy=0;entryX=0;entryY=0.5;entryDx=0;entryDy=0;" parent="1" source="pp8-QFKgKfyrIBCOwYfq-155" target="pp8-QFKgKfyrIBCOwYfq-180" edge="1">
          <mxGeometry relative="1" as="geometry" />
        </mxCell>
        <mxCell id="pp8-QFKgKfyrIBCOwYfq-186" style="edgeStyle=orthogonalEdgeStyle;rounded=0;orthogonalLoop=1;jettySize=auto;html=1;exitX=1;exitY=0.5;exitDx=0;exitDy=0;entryX=0;entryY=0.5;entryDx=0;entryDy=0;" parent="1" source="pp8-QFKgKfyrIBCOwYfq-158" target="pp8-QFKgKfyrIBCOwYfq-181" edge="1">
          <mxGeometry relative="1" as="geometry" />
        </mxCell>
        <mxCell id="pp8-QFKgKfyrIBCOwYfq-187" style="edgeStyle=orthogonalEdgeStyle;rounded=0;orthogonalLoop=1;jettySize=auto;html=1;exitX=1;exitY=0.5;exitDx=0;exitDy=0;entryX=0;entryY=0.5;entryDx=0;entryDy=0;" parent="1" source="pp8-QFKgKfyrIBCOwYfq-161" target="pp8-QFKgKfyrIBCOwYfq-182" edge="1">
          <mxGeometry relative="1" as="geometry" />
        </mxCell>
        <mxCell id="pp8-QFKgKfyrIBCOwYfq-188" value="" style="group" parent="1" vertex="1" connectable="0">
          <mxGeometry x="400" y="520.5" width="40" height="160" as="geometry" />
        </mxCell>
        <mxCell id="pp8-QFKgKfyrIBCOwYfq-189" value="" style="rounded=0;whiteSpace=wrap;html=1;fillColor=#f5f5f5;fontColor=#333333;strokeColor=#666666;" parent="pp8-QFKgKfyrIBCOwYfq-188" vertex="1">
          <mxGeometry width="40" height="160" as="geometry" />
        </mxCell>
        <mxCell id="pp8-QFKgKfyrIBCOwYfq-190" value="" style="triangle;whiteSpace=wrap;html=1;rotation=-90;fillColor=#647687;fontColor=#ffffff;strokeColor=#314354;" parent="pp8-QFKgKfyrIBCOwYfq-188" vertex="1">
          <mxGeometry y="120" width="40" height="40" as="geometry" />
        </mxCell>
        <mxCell id="pp8-QFKgKfyrIBCOwYfq-191" value="" style="group" parent="1" vertex="1" connectable="0">
          <mxGeometry x="400" y="720.5" width="40" height="160" as="geometry" />
        </mxCell>
        <mxCell id="pp8-QFKgKfyrIBCOwYfq-192" value="" style="rounded=0;whiteSpace=wrap;html=1;fillColor=#f5f5f5;fontColor=#333333;strokeColor=#666666;" parent="pp8-QFKgKfyrIBCOwYfq-191" vertex="1">
          <mxGeometry width="40" height="160" as="geometry" />
        </mxCell>
        <mxCell id="pp8-QFKgKfyrIBCOwYfq-193" value="" style="triangle;whiteSpace=wrap;html=1;rotation=-90;fillColor=#647687;fontColor=#ffffff;strokeColor=#314354;" parent="pp8-QFKgKfyrIBCOwYfq-191" vertex="1">
          <mxGeometry y="120" width="40" height="40" as="geometry" />
        </mxCell>
        <mxCell id="pp8-QFKgKfyrIBCOwYfq-194" value="" style="group" parent="1" vertex="1" connectable="0">
          <mxGeometry x="400" y="920" width="40" height="160" as="geometry" />
        </mxCell>
        <mxCell id="pp8-QFKgKfyrIBCOwYfq-195" value="" style="rounded=0;whiteSpace=wrap;html=1;fillColor=#f5f5f5;fontColor=#333333;strokeColor=#666666;" parent="pp8-QFKgKfyrIBCOwYfq-194" vertex="1">
          <mxGeometry width="40" height="160" as="geometry" />
        </mxCell>
        <mxCell id="pp8-QFKgKfyrIBCOwYfq-196" value="" style="triangle;whiteSpace=wrap;html=1;rotation=-90;fillColor=#647687;fontColor=#ffffff;strokeColor=#314354;" parent="pp8-QFKgKfyrIBCOwYfq-194" vertex="1">
          <mxGeometry y="120" width="40" height="40" as="geometry" />
        </mxCell>
        <mxCell id="pp8-QFKgKfyrIBCOwYfq-197" value="" style="group" parent="1" vertex="1" connectable="0">
          <mxGeometry x="400" y="1120" width="40" height="160" as="geometry" />
        </mxCell>
        <mxCell id="pp8-QFKgKfyrIBCOwYfq-244" style="edgeStyle=orthogonalEdgeStyle;rounded=0;orthogonalLoop=1;jettySize=auto;html=1;exitX=1;exitY=0.5;exitDx=0;exitDy=0;" parent="pp8-QFKgKfyrIBCOwYfq-197" source="pp8-QFKgKfyrIBCOwYfq-198" edge="1">
          <mxGeometry relative="1" as="geometry">
            <mxPoint x="40.13793103448279" y="80.24137931034488" as="targetPoint" />
          </mxGeometry>
        </mxCell>
        <mxCell id="pp8-QFKgKfyrIBCOwYfq-198" value="" style="rounded=0;whiteSpace=wrap;html=1;fillColor=#f5f5f5;fontColor=#333333;strokeColor=#666666;" parent="pp8-QFKgKfyrIBCOwYfq-197" vertex="1">
          <mxGeometry width="40" height="160" as="geometry" />
        </mxCell>
        <mxCell id="pp8-QFKgKfyrIBCOwYfq-199" value="" style="triangle;whiteSpace=wrap;html=1;rotation=-90;fillColor=#647687;fontColor=#ffffff;strokeColor=#314354;" parent="pp8-QFKgKfyrIBCOwYfq-197" vertex="1">
          <mxGeometry y="120" width="40" height="40" as="geometry" />
        </mxCell>
        <mxCell id="pp8-QFKgKfyrIBCOwYfq-200" value="" style="group" parent="1" vertex="1" connectable="0">
          <mxGeometry x="401" y="1320" width="40" height="160" as="geometry" />
        </mxCell>
        <mxCell id="pp8-QFKgKfyrIBCOwYfq-201" value="" style="rounded=0;whiteSpace=wrap;html=1;fillColor=#f5f5f5;fontColor=#333333;strokeColor=#666666;" parent="pp8-QFKgKfyrIBCOwYfq-200" vertex="1">
          <mxGeometry width="40" height="160" as="geometry" />
        </mxCell>
        <mxCell id="pp8-QFKgKfyrIBCOwYfq-202" value="" style="triangle;whiteSpace=wrap;html=1;rotation=-90;fillColor=#647687;fontColor=#ffffff;strokeColor=#314354;" parent="pp8-QFKgKfyrIBCOwYfq-200" vertex="1">
          <mxGeometry y="120" width="40" height="40" as="geometry" />
        </mxCell>
        <mxCell id="pp8-QFKgKfyrIBCOwYfq-208" value="" style="group;direction=east;flipV=0;" parent="1" vertex="1" connectable="0">
          <mxGeometry x="-480" y="-81" width="40" height="400" as="geometry" />
        </mxCell>
        <mxCell id="pp8-QFKgKfyrIBCOwYfq-210" value="" style="rounded=0;whiteSpace=wrap;html=1;fillColor=#f5f5f5;fontColor=#333333;strokeColor=#666666;direction=east;" parent="pp8-QFKgKfyrIBCOwYfq-208" vertex="1">
          <mxGeometry width="40" height="400" as="geometry" />
        </mxCell>
        <mxCell id="pp8-QFKgKfyrIBCOwYfq-211" value="" style="triangle;whiteSpace=wrap;html=1;rotation=-90;fillColor=#647687;fontColor=#ffffff;strokeColor=#314354;direction=east;" parent="pp8-QFKgKfyrIBCOwYfq-208" vertex="1">
          <mxGeometry y="360" width="40" height="40" as="geometry" />
        </mxCell>
        <mxCell id="pp8-QFKgKfyrIBCOwYfq-221" style="edgeStyle=orthogonalEdgeStyle;rounded=0;orthogonalLoop=1;jettySize=auto;html=1;exitX=0.5;exitY=0;exitDx=0;exitDy=0;" parent="1" source="pp8-QFKgKfyrIBCOwYfq-214" edge="1">
          <mxGeometry relative="1" as="geometry">
            <mxPoint x="679.9999999999995" y="598.8620689655172" as="targetPoint" />
          </mxGeometry>
        </mxCell>
        <mxCell id="pp8-QFKgKfyrIBCOwYfq-214" value="&lt;b style=&quot;font-size: 16px;&quot;&gt;ALU&lt;/b&gt;" style="shape=trapezoid;perimeter=trapezoidPerimeter;whiteSpace=wrap;html=1;fixedSize=1;rotation=0;fillColor=#e1d5e7;strokeColor=#9673a6;direction=south;fontSize=16;" parent="1" vertex="1">
          <mxGeometry x="520" y="519" width="60" height="160" as="geometry" />
        </mxCell>
        <mxCell id="pp8-QFKgKfyrIBCOwYfq-220" style="edgeStyle=orthogonalEdgeStyle;rounded=0;orthogonalLoop=1;jettySize=auto;html=1;exitX=1;exitY=0.75;exitDx=0;exitDy=0;" parent="1" source="pp8-QFKgKfyrIBCOwYfq-189" edge="1">
          <mxGeometry relative="1" as="geometry">
            <mxPoint x="520" y="640" as="targetPoint" />
          </mxGeometry>
        </mxCell>
        <mxCell id="pp8-QFKgKfyrIBCOwYfq-222" value="" style="group" parent="1" vertex="1" connectable="0">
          <mxGeometry x="680.5" y="520.5" width="610" height="1070" as="geometry" />
        </mxCell>
        <mxCell id="pp8-QFKgKfyrIBCOwYfq-223" value="" style="rounded=0;whiteSpace=wrap;html=1;fillColor=#f5f5f5;fontColor=#333333;strokeColor=#666666;" parent="pp8-QFKgKfyrIBCOwYfq-222" vertex="1">
          <mxGeometry x="-1" width="40" height="160" as="geometry" />
        </mxCell>
        <mxCell id="pp8-QFKgKfyrIBCOwYfq-224" value="" style="triangle;whiteSpace=wrap;html=1;rotation=-90;fillColor=#647687;fontColor=#ffffff;strokeColor=#314354;" parent="pp8-QFKgKfyrIBCOwYfq-222" vertex="1">
          <mxGeometry y="120" width="40" height="40" as="geometry" />
        </mxCell>
        <mxCell id="pp8-QFKgKfyrIBCOwYfq-225" style="edgeStyle=orthogonalEdgeStyle;rounded=0;orthogonalLoop=1;jettySize=auto;html=1;exitX=0.5;exitY=0;exitDx=0;exitDy=0;" parent="1" source="pp8-QFKgKfyrIBCOwYfq-226" edge="1">
          <mxGeometry relative="1" as="geometry">
            <mxPoint x="679.4999999999995" y="798.8620689655172" as="targetPoint" />
          </mxGeometry>
        </mxCell>
        <mxCell id="pp8-QFKgKfyrIBCOwYfq-226" value="&lt;b style=&quot;font-size: 16px;&quot;&gt;ALU&lt;/b&gt;" style="shape=trapezoid;perimeter=trapezoidPerimeter;whiteSpace=wrap;html=1;fixedSize=1;rotation=0;fillColor=#e1d5e7;strokeColor=#9673a6;direction=south;fontSize=16;" parent="1" vertex="1">
          <mxGeometry x="519.5" y="719" width="60" height="160" as="geometry" />
        </mxCell>
        <mxCell id="pp8-QFKgKfyrIBCOwYfq-227" style="edgeStyle=orthogonalEdgeStyle;rounded=0;orthogonalLoop=1;jettySize=auto;html=1;" parent="1" edge="1">
          <mxGeometry relative="1" as="geometry">
            <mxPoint x="440" y="760" as="sourcePoint" />
            <mxPoint x="520" y="760" as="targetPoint" />
          </mxGeometry>
        </mxCell>
        <mxCell id="pp8-QFKgKfyrIBCOwYfq-228" style="edgeStyle=orthogonalEdgeStyle;rounded=0;orthogonalLoop=1;jettySize=auto;html=1;exitX=1;exitY=0.75;exitDx=0;exitDy=0;entryX=0.75;entryY=1;entryDx=0;entryDy=0;" parent="1" edge="1">
          <mxGeometry relative="1" as="geometry">
            <mxPoint x="440.5" y="840" as="sourcePoint" />
            <mxPoint x="519.5" y="840" as="targetPoint" />
            <Array as="points">
              <mxPoint x="460" y="840" />
              <mxPoint x="460" y="840" />
            </Array>
          </mxGeometry>
        </mxCell>
        <mxCell id="pp8-QFKgKfyrIBCOwYfq-229" value="" style="group" parent="1" vertex="1" connectable="0">
          <mxGeometry x="679.5" y="720" width="40" height="160" as="geometry" />
        </mxCell>
        <mxCell id="pp8-QFKgKfyrIBCOwYfq-230" value="" style="rounded=0;whiteSpace=wrap;html=1;fillColor=#f5f5f5;fontColor=#333333;strokeColor=#666666;" parent="pp8-QFKgKfyrIBCOwYfq-229" vertex="1">
          <mxGeometry width="40" height="160" as="geometry" />
        </mxCell>
        <mxCell id="pp8-QFKgKfyrIBCOwYfq-231" value="" style="triangle;whiteSpace=wrap;html=1;rotation=-90;fillColor=#647687;fontColor=#ffffff;strokeColor=#314354;" parent="pp8-QFKgKfyrIBCOwYfq-229" vertex="1">
          <mxGeometry y="120" width="40" height="40" as="geometry" />
        </mxCell>
        <mxCell id="pp8-QFKgKfyrIBCOwYfq-238" style="edgeStyle=orthogonalEdgeStyle;rounded=0;orthogonalLoop=1;jettySize=auto;html=1;exitX=0.5;exitY=0;exitDx=0;exitDy=0;" parent="1" source="pp8-QFKgKfyrIBCOwYfq-232" edge="1">
          <mxGeometry relative="1" as="geometry">
            <mxPoint x="679.9999999999995" y="960.2413793103449" as="targetPoint" />
          </mxGeometry>
        </mxCell>
        <mxCell id="pp8-QFKgKfyrIBCOwYfq-232" value="&lt;b style=&quot;font-size: 16px;&quot;&gt;ALU&lt;/b&gt;" style="shape=trapezoid;perimeter=trapezoidPerimeter;whiteSpace=wrap;html=1;fixedSize=1;rotation=0;fillColor=#e1d5e7;strokeColor=#9673a6;direction=south;fontSize=16;" parent="1" vertex="1">
          <mxGeometry x="560" y="920" width="40" height="80" as="geometry" />
        </mxCell>
        <mxCell id="pp8-QFKgKfyrIBCOwYfq-239" style="edgeStyle=orthogonalEdgeStyle;rounded=0;orthogonalLoop=1;jettySize=auto;html=1;exitX=1;exitY=0.5;exitDx=0;exitDy=0;" parent="1" source="pp8-QFKgKfyrIBCOwYfq-233" edge="1">
          <mxGeometry relative="1" as="geometry">
            <mxPoint x="680" y="1045" as="targetPoint" />
            <Array as="points">
              <mxPoint x="680" y="1045" />
            </Array>
          </mxGeometry>
        </mxCell>
        <mxCell id="pp8-QFKgKfyrIBCOwYfq-233" value="&lt;b style=&quot;font-size: 16px;&quot;&gt;Branch&lt;/b&gt;" style="whiteSpace=wrap;html=1;aspect=fixed;fillColor=#d5e8d4;strokeColor=#82b366;fontSize=16;" parent="1" vertex="1">
          <mxGeometry x="540" y="1010" width="70" height="70" as="geometry" />
        </mxCell>
        <mxCell id="pp8-QFKgKfyrIBCOwYfq-234" style="edgeStyle=orthogonalEdgeStyle;rounded=0;orthogonalLoop=1;jettySize=auto;html=1;exitX=1;exitY=0.25;exitDx=0;exitDy=0;entryX=0.25;entryY=1;entryDx=0;entryDy=0;" parent="1" source="pp8-QFKgKfyrIBCOwYfq-195" target="pp8-QFKgKfyrIBCOwYfq-232" edge="1">
          <mxGeometry relative="1" as="geometry">
            <Array as="points">
              <mxPoint x="450" y="960" />
              <mxPoint x="450" y="940" />
            </Array>
          </mxGeometry>
        </mxCell>
        <mxCell id="pp8-QFKgKfyrIBCOwYfq-235" style="edgeStyle=orthogonalEdgeStyle;rounded=0;orthogonalLoop=1;jettySize=auto;html=1;exitX=1;exitY=0.75;exitDx=0;exitDy=0;entryX=0.75;entryY=1;entryDx=0;entryDy=0;" parent="1" source="pp8-QFKgKfyrIBCOwYfq-195" target="pp8-QFKgKfyrIBCOwYfq-232" edge="1">
          <mxGeometry relative="1" as="geometry">
            <Array as="points">
              <mxPoint x="470" y="1040" />
              <mxPoint x="470" y="980" />
            </Array>
          </mxGeometry>
        </mxCell>
        <mxCell id="pp8-QFKgKfyrIBCOwYfq-236" style="edgeStyle=orthogonalEdgeStyle;rounded=0;orthogonalLoop=1;jettySize=auto;html=1;exitX=1;exitY=0.25;exitDx=0;exitDy=0;entryX=0;entryY=0.25;entryDx=0;entryDy=0;" parent="1" source="pp8-QFKgKfyrIBCOwYfq-195" target="pp8-QFKgKfyrIBCOwYfq-233" edge="1">
          <mxGeometry relative="1" as="geometry">
            <Array as="points">
              <mxPoint x="450" y="960" />
              <mxPoint x="450" y="1028" />
              <mxPoint x="540" y="1028" />
            </Array>
          </mxGeometry>
        </mxCell>
        <mxCell id="pp8-QFKgKfyrIBCOwYfq-237" style="edgeStyle=orthogonalEdgeStyle;rounded=0;orthogonalLoop=1;jettySize=auto;html=1;exitX=1;exitY=0.75;exitDx=0;exitDy=0;entryX=0;entryY=0.75;entryDx=0;entryDy=0;" parent="1" source="pp8-QFKgKfyrIBCOwYfq-195" target="pp8-QFKgKfyrIBCOwYfq-233" edge="1">
          <mxGeometry relative="1" as="geometry">
            <Array as="points">
              <mxPoint x="470" y="1040" />
              <mxPoint x="470" y="1063" />
              <mxPoint x="540" y="1063" />
            </Array>
          </mxGeometry>
        </mxCell>
        <mxCell id="pp8-QFKgKfyrIBCOwYfq-240" value="" style="group" parent="1" vertex="1" connectable="0">
          <mxGeometry x="680" y="920" width="40" height="160" as="geometry" />
        </mxCell>
        <mxCell id="pp8-QFKgKfyrIBCOwYfq-241" value="" style="rounded=0;whiteSpace=wrap;html=1;fillColor=#f5f5f5;fontColor=#333333;strokeColor=#666666;" parent="pp8-QFKgKfyrIBCOwYfq-240" vertex="1">
          <mxGeometry width="40" height="160" as="geometry" />
        </mxCell>
        <mxCell id="pp8-QFKgKfyrIBCOwYfq-242" value="" style="triangle;whiteSpace=wrap;html=1;rotation=-90;fillColor=#647687;fontColor=#ffffff;strokeColor=#314354;" parent="pp8-QFKgKfyrIBCOwYfq-240" vertex="1">
          <mxGeometry y="120" width="40" height="40" as="geometry" />
        </mxCell>
        <mxCell id="pp8-QFKgKfyrIBCOwYfq-250" style="edgeStyle=orthogonalEdgeStyle;rounded=0;orthogonalLoop=1;jettySize=auto;html=1;exitX=1;exitY=0.5;exitDx=0;exitDy=0;" parent="1" source="pp8-QFKgKfyrIBCOwYfq-243" edge="1">
          <mxGeometry relative="1" as="geometry">
            <mxPoint x="679.9999999999995" y="1200.2413793103449" as="targetPoint" />
          </mxGeometry>
        </mxCell>
        <mxCell id="pp8-QFKgKfyrIBCOwYfq-243" value="&lt;b style=&quot;font-size: 16px;&quot;&gt;MDU&lt;/b&gt;" style="rounded=1;whiteSpace=wrap;html=1;fillColor=#fad7ac;strokeColor=#b46504;fontSize=16;" parent="1" vertex="1">
          <mxGeometry x="520" y="1120" width="80" height="160" as="geometry" />
        </mxCell>
        <mxCell id="pp8-QFKgKfyrIBCOwYfq-245" style="edgeStyle=orthogonalEdgeStyle;rounded=0;orthogonalLoop=1;jettySize=auto;html=1;exitX=1;exitY=0.25;exitDx=0;exitDy=0;entryX=0;entryY=0.25;entryDx=0;entryDy=0;" parent="1" source="pp8-QFKgKfyrIBCOwYfq-198" target="pp8-QFKgKfyrIBCOwYfq-243" edge="1">
          <mxGeometry relative="1" as="geometry" />
        </mxCell>
        <mxCell id="pp8-QFKgKfyrIBCOwYfq-246" style="edgeStyle=orthogonalEdgeStyle;rounded=0;orthogonalLoop=1;jettySize=auto;html=1;exitX=1;exitY=0.75;exitDx=0;exitDy=0;entryX=0;entryY=0.75;entryDx=0;entryDy=0;" parent="1" source="pp8-QFKgKfyrIBCOwYfq-198" target="pp8-QFKgKfyrIBCOwYfq-243" edge="1">
          <mxGeometry relative="1" as="geometry" />
        </mxCell>
        <mxCell id="pp8-QFKgKfyrIBCOwYfq-247" value="" style="group" parent="1" vertex="1" connectable="0">
          <mxGeometry x="680" y="1120" width="40" height="160" as="geometry" />
        </mxCell>
        <mxCell id="pp8-QFKgKfyrIBCOwYfq-248" value="" style="rounded=0;whiteSpace=wrap;html=1;fillColor=#f5f5f5;fontColor=#333333;strokeColor=#666666;" parent="pp8-QFKgKfyrIBCOwYfq-247" vertex="1">
          <mxGeometry width="40" height="160" as="geometry" />
        </mxCell>
        <mxCell id="pp8-QFKgKfyrIBCOwYfq-249" value="" style="triangle;whiteSpace=wrap;html=1;rotation=-90;fillColor=#647687;fontColor=#ffffff;strokeColor=#314354;" parent="pp8-QFKgKfyrIBCOwYfq-247" vertex="1">
          <mxGeometry y="120" width="40" height="40" as="geometry" />
        </mxCell>
        <mxCell id="pp8-QFKgKfyrIBCOwYfq-251" value="" style="group" parent="1" vertex="1" connectable="0">
          <mxGeometry x="680" y="1320" width="40" height="160" as="geometry" />
        </mxCell>
        <mxCell id="pp8-QFKgKfyrIBCOwYfq-252" value="" style="rounded=0;whiteSpace=wrap;html=1;fillColor=#f5f5f5;fontColor=#333333;strokeColor=#666666;" parent="pp8-QFKgKfyrIBCOwYfq-251" vertex="1">
          <mxGeometry width="40" height="160" as="geometry" />
        </mxCell>
        <mxCell id="pp8-QFKgKfyrIBCOwYfq-253" value="" style="triangle;whiteSpace=wrap;html=1;rotation=-90;fillColor=#647687;fontColor=#ffffff;strokeColor=#314354;" parent="pp8-QFKgKfyrIBCOwYfq-251" vertex="1">
          <mxGeometry y="120" width="40" height="40" as="geometry" />
        </mxCell>
        <mxCell id="pp8-QFKgKfyrIBCOwYfq-258" style="edgeStyle=orthogonalEdgeStyle;rounded=0;orthogonalLoop=1;jettySize=auto;html=1;exitX=1;exitY=0.5;exitDx=0;exitDy=0;" parent="1" source="pp8-QFKgKfyrIBCOwYfq-255" edge="1">
          <mxGeometry relative="1" as="geometry">
            <mxPoint x="399.99999999999955" y="1400.2413793103449" as="targetPoint" />
          </mxGeometry>
        </mxCell>
        <mxCell id="pp8-QFKgKfyrIBCOwYfq-255" value="&lt;font style=&quot;font-size: 16px;&quot;&gt;&lt;b&gt;+&lt;/b&gt;&lt;/font&gt;" style="ellipse;whiteSpace=wrap;html=1;aspect=fixed;fillColor=#fad9d5;strokeColor=#ae4132;" parent="1" vertex="1">
          <mxGeometry x="280" y="1380" width="40" height="40" as="geometry" />
        </mxCell>
        <mxCell id="pp8-QFKgKfyrIBCOwYfq-257" style="edgeStyle=orthogonalEdgeStyle;rounded=0;orthogonalLoop=1;jettySize=auto;html=1;exitX=1;exitY=0.75;exitDx=0;exitDy=0;entryX=0;entryY=1;entryDx=0;entryDy=0;" parent="1" source="pp8-QFKgKfyrIBCOwYfq-161" target="pp8-QFKgKfyrIBCOwYfq-255" edge="1">
          <mxGeometry relative="1" as="geometry">
            <Array as="points">
              <mxPoint x="80" y="1450" />
              <mxPoint x="240" y="1450" />
              <mxPoint x="240" y="1414" />
            </Array>
          </mxGeometry>
        </mxCell>
        <mxCell id="pp8-QFKgKfyrIBCOwYfq-267" style="edgeStyle=orthogonalEdgeStyle;rounded=0;orthogonalLoop=1;jettySize=auto;html=1;exitX=0.25;exitY=0;exitDx=0;exitDy=0;entryX=0;entryY=0.75;entryDx=0;entryDy=0;fontStyle=0" parent="1" source="pp8-QFKgKfyrIBCOwYfq-259" target="pp8-QFKgKfyrIBCOwYfq-201" edge="1">
          <mxGeometry relative="1" as="geometry">
            <Array as="points">
              <mxPoint x="350" y="1440" />
            </Array>
          </mxGeometry>
        </mxCell>
        <mxCell id="pp8-QFKgKfyrIBCOwYfq-259" value="&lt;b style=&quot;font-size: 18px;&quot;&gt;Store Buffer&lt;/b&gt;" style="rounded=1;whiteSpace=wrap;html=1;fillColor=#d0cee2;strokeColor=#56517e;fontSize=18;" parent="1" vertex="1">
          <mxGeometry x="245" y="1520" width="420" height="40" as="geometry" />
        </mxCell>
        <mxCell id="pp8-QFKgKfyrIBCOwYfq-264" style="edgeStyle=orthogonalEdgeStyle;rounded=0;orthogonalLoop=1;jettySize=auto;html=1;exitX=1;exitY=0.5;exitDx=0;exitDy=0;entryX=0;entryY=0.75;entryDx=0;entryDy=0;" parent="1" source="pp8-QFKgKfyrIBCOwYfq-260" target="pp8-QFKgKfyrIBCOwYfq-252" edge="1">
          <mxGeometry relative="1" as="geometry" />
        </mxCell>
        <mxCell id="pp8-QFKgKfyrIBCOwYfq-266" style="edgeStyle=orthogonalEdgeStyle;rounded=0;orthogonalLoop=1;jettySize=auto;html=1;exitX=0.5;exitY=1;exitDx=0;exitDy=0;entryX=0.75;entryY=0;entryDx=0;entryDy=0;fontStyle=1" parent="1" source="pp8-QFKgKfyrIBCOwYfq-260" target="pp8-QFKgKfyrIBCOwYfq-259" edge="1">
          <mxGeometry relative="1" as="geometry" />
        </mxCell>
        <mxCell id="pp8-QFKgKfyrIBCOwYfq-260" value="&lt;b style=&quot;font-size: 16px;&quot;&gt;DCache&lt;br style=&quot;font-size: 16px;&quot;&gt;Tag Table&lt;br style=&quot;font-size: 16px;&quot;&gt;&lt;/b&gt;" style="rounded=1;whiteSpace=wrap;html=1;fillColor=#fad9d5;strokeColor=#ae4132;fontSize=16;" parent="1" vertex="1">
          <mxGeometry x="480" y="1400" width="160" height="80" as="geometry" />
        </mxCell>
        <mxCell id="pp8-QFKgKfyrIBCOwYfq-276" style="edgeStyle=orthogonalEdgeStyle;rounded=0;orthogonalLoop=1;jettySize=auto;html=1;exitX=1;exitY=0.5;exitDx=0;exitDy=0;entryX=0;entryY=0.5;entryDx=0;entryDy=0;" parent="1" source="pp8-QFKgKfyrIBCOwYfq-261" target="pp8-QFKgKfyrIBCOwYfq-274" edge="1">
          <mxGeometry relative="1" as="geometry" />
        </mxCell>
        <mxCell id="pp8-QFKgKfyrIBCOwYfq-261" value="&lt;b style=&quot;font-size: 16px;&quot;&gt;DCache&lt;br style=&quot;font-size: 16px;&quot;&gt;Data Table&lt;br style=&quot;font-size: 16px;&quot;&gt;&lt;/b&gt;" style="rounded=1;whiteSpace=wrap;html=1;fillColor=#fad9d5;strokeColor=#ae4132;fontSize=16;" parent="1" vertex="1">
          <mxGeometry x="760" y="1359.5" width="160" height="80" as="geometry" />
        </mxCell>
        <mxCell id="pp8-QFKgKfyrIBCOwYfq-263" style="edgeStyle=orthogonalEdgeStyle;rounded=0;orthogonalLoop=1;jettySize=auto;html=1;exitX=1;exitY=0.75;exitDx=0;exitDy=0;entryX=0;entryY=0.5;entryDx=0;entryDy=0;" parent="1" source="pp8-QFKgKfyrIBCOwYfq-201" target="pp8-QFKgKfyrIBCOwYfq-260" edge="1">
          <mxGeometry relative="1" as="geometry" />
        </mxCell>
        <mxCell id="pp8-QFKgKfyrIBCOwYfq-323" style="edgeStyle=orthogonalEdgeStyle;rounded=0;orthogonalLoop=1;jettySize=auto;html=1;exitX=1;exitY=0.5;exitDx=0;exitDy=0;entryX=0;entryY=0.25;entryDx=0;entryDy=0;" parent="1" source="pp8-QFKgKfyrIBCOwYfq-265" target="pp8-QFKgKfyrIBCOwYfq-252" edge="1">
          <mxGeometry relative="1" as="geometry" />
        </mxCell>
        <mxCell id="pp8-QFKgKfyrIBCOwYfq-265" value="&lt;b style=&quot;font-size: 16px;&quot;&gt;TLB&lt;/b&gt;" style="rounded=0;whiteSpace=wrap;html=1;fillColor=#cdeb8b;strokeColor=#36393d;fontSize=16;" parent="1" vertex="1">
          <mxGeometry x="480" y="1340" width="160" height="40" as="geometry" />
        </mxCell>
        <mxCell id="pp8-QFKgKfyrIBCOwYfq-268" style="edgeStyle=orthogonalEdgeStyle;rounded=0;orthogonalLoop=1;jettySize=auto;html=1;exitX=1;exitY=0.5;exitDx=0;exitDy=0;entryX=0;entryY=0.5;entryDx=0;entryDy=0;" parent="1" source="pp8-QFKgKfyrIBCOwYfq-252" target="pp8-QFKgKfyrIBCOwYfq-261" edge="1">
          <mxGeometry relative="1" as="geometry" />
        </mxCell>
        <mxCell id="pp8-QFKgKfyrIBCOwYfq-332" style="edgeStyle=orthogonalEdgeStyle;rounded=0;orthogonalLoop=1;jettySize=auto;html=1;exitX=1;exitY=0.5;exitDx=0;exitDy=0;entryX=0.5;entryY=1;entryDx=0;entryDy=0;strokeColor=#FF0000;" parent="1" source="pp8-QFKgKfyrIBCOwYfq-272" target="pp8-QFKgKfyrIBCOwYfq-214" edge="1">
          <mxGeometry relative="1" as="geometry">
            <Array as="points">
              <mxPoint x="930" y="570" />
              <mxPoint x="930" y="480" />
              <mxPoint x="460" y="480" />
              <mxPoint x="460" y="599" />
            </Array>
          </mxGeometry>
        </mxCell>
        <mxCell id="pp8-QFKgKfyrIBCOwYfq-333" style="edgeStyle=orthogonalEdgeStyle;rounded=0;orthogonalLoop=1;jettySize=auto;html=1;exitX=1;exitY=0.5;exitDx=0;exitDy=0;entryX=0.5;entryY=1;entryDx=0;entryDy=0;fillColor=#ffff88;strokeColor=#FF0000;" parent="1" edge="1">
          <mxGeometry relative="1" as="geometry">
            <mxPoint x="910" y="570.75" as="sourcePoint" />
            <mxPoint x="519.5" y="800" as="targetPoint" />
            <Array as="points">
              <mxPoint x="930" y="571" />
              <mxPoint x="930" y="481" />
              <mxPoint x="460" y="481" />
              <mxPoint x="460" y="800" />
            </Array>
          </mxGeometry>
        </mxCell>
        <mxCell id="pp8-QFKgKfyrIBCOwYfq-334" style="edgeStyle=orthogonalEdgeStyle;rounded=0;orthogonalLoop=1;jettySize=auto;html=1;exitX=1;exitY=0.5;exitDx=0;exitDy=0;entryX=0.5;entryY=1;entryDx=0;entryDy=0;fontColor=#FF0000;strokeColor=#FF0000;" parent="1" source="pp8-QFKgKfyrIBCOwYfq-272" target="pp8-QFKgKfyrIBCOwYfq-232" edge="1">
          <mxGeometry relative="1" as="geometry">
            <Array as="points">
              <mxPoint x="930" y="570" />
              <mxPoint x="930" y="480" />
              <mxPoint x="460" y="480" />
              <mxPoint x="460" y="960" />
            </Array>
          </mxGeometry>
        </mxCell>
        <mxCell id="pp8-QFKgKfyrIBCOwYfq-335" style="edgeStyle=orthogonalEdgeStyle;rounded=0;orthogonalLoop=1;jettySize=auto;html=1;exitX=1;exitY=0.5;exitDx=0;exitDy=0;entryX=0;entryY=0.5;entryDx=0;entryDy=0;fontColor=#FFFF00;fillColor=#cdeb8b;strokeColor=#FF0000;" parent="1" source="pp8-QFKgKfyrIBCOwYfq-272" target="pp8-QFKgKfyrIBCOwYfq-233" edge="1">
          <mxGeometry relative="1" as="geometry">
            <Array as="points">
              <mxPoint x="930" y="570" />
              <mxPoint x="930" y="480" />
              <mxPoint x="460" y="480" />
              <mxPoint x="460" y="1045" />
            </Array>
          </mxGeometry>
        </mxCell>
        <mxCell id="pp8-QFKgKfyrIBCOwYfq-272" value="&lt;b style=&quot;font-size: 16px;&quot;&gt;&lt;font style=&quot;font-size: 16px;&quot;&gt;ByPass_3&lt;/font&gt;&lt;/b&gt;" style="rounded=1;whiteSpace=wrap;html=1;fillColor=#ffcccc;strokeColor=#36393d;fontSize=16;" parent="1" vertex="1">
          <mxGeometry x="790" y="510" width="120" height="119.5" as="geometry" />
        </mxCell>
        <mxCell id="pp8-QFKgKfyrIBCOwYfq-273" value="" style="group" parent="1" vertex="1" connectable="0">
          <mxGeometry x="960" y="1320" width="40" height="160" as="geometry" />
        </mxCell>
        <mxCell id="pp8-QFKgKfyrIBCOwYfq-274" value="" style="rounded=0;whiteSpace=wrap;html=1;fillColor=#f5f5f5;fontColor=#333333;strokeColor=#666666;" parent="pp8-QFKgKfyrIBCOwYfq-273" vertex="1">
          <mxGeometry width="40" height="160" as="geometry" />
        </mxCell>
        <mxCell id="pp8-QFKgKfyrIBCOwYfq-275" value="" style="triangle;whiteSpace=wrap;html=1;rotation=-90;fillColor=#647687;fontColor=#ffffff;strokeColor=#314354;" parent="pp8-QFKgKfyrIBCOwYfq-273" vertex="1">
          <mxGeometry y="120" width="40" height="40" as="geometry" />
        </mxCell>
        <mxCell id="pp8-QFKgKfyrIBCOwYfq-278" style="edgeStyle=orthogonalEdgeStyle;rounded=0;orthogonalLoop=1;jettySize=auto;html=1;exitX=1;exitY=0.5;exitDx=0;exitDy=0;entryX=0;entryY=0.25;entryDx=0;entryDy=0;" parent="1" source="pp8-QFKgKfyrIBCOwYfq-223" target="pp8-QFKgKfyrIBCOwYfq-272" edge="1">
          <mxGeometry relative="1" as="geometry">
            <Array as="points">
              <mxPoint x="740" y="600" />
              <mxPoint x="740" y="540" />
            </Array>
          </mxGeometry>
        </mxCell>
        <mxCell id="pp8-QFKgKfyrIBCOwYfq-279" style="edgeStyle=orthogonalEdgeStyle;rounded=0;orthogonalLoop=1;jettySize=auto;html=1;exitX=1;exitY=0.5;exitDx=0;exitDy=0;entryX=0;entryY=0.5;entryDx=0;entryDy=0;" parent="1" source="pp8-QFKgKfyrIBCOwYfq-230" target="pp8-QFKgKfyrIBCOwYfq-272" edge="1">
          <mxGeometry relative="1" as="geometry">
            <Array as="points">
              <mxPoint x="750" y="800" />
              <mxPoint x="750" y="570" />
            </Array>
          </mxGeometry>
        </mxCell>
        <mxCell id="pp8-QFKgKfyrIBCOwYfq-280" style="edgeStyle=orthogonalEdgeStyle;rounded=0;orthogonalLoop=1;jettySize=auto;html=1;exitX=1;exitY=0.5;exitDx=0;exitDy=0;entryX=0;entryY=0.75;entryDx=0;entryDy=0;" parent="1" source="pp8-QFKgKfyrIBCOwYfq-241" target="pp8-QFKgKfyrIBCOwYfq-272" edge="1">
          <mxGeometry relative="1" as="geometry">
            <Array as="points">
              <mxPoint x="760" y="1000" />
              <mxPoint x="760" y="600" />
            </Array>
          </mxGeometry>
        </mxCell>
        <mxCell id="pp8-QFKgKfyrIBCOwYfq-336" style="edgeStyle=orthogonalEdgeStyle;rounded=0;orthogonalLoop=1;jettySize=auto;html=1;exitX=1;exitY=0.5;exitDx=0;exitDy=0;entryX=0;entryY=0.5;entryDx=0;entryDy=0;strokeColor=#FF0000;" parent="1" source="pp8-QFKgKfyrIBCOwYfq-281" target="pp8-QFKgKfyrIBCOwYfq-243" edge="1">
          <mxGeometry relative="1" as="geometry">
            <Array as="points">
              <mxPoint x="860" y="1160" />
              <mxPoint x="860" y="1100" />
              <mxPoint x="460" y="1100" />
              <mxPoint x="460" y="1200" />
            </Array>
          </mxGeometry>
        </mxCell>
        <mxCell id="pp8-QFKgKfyrIBCOwYfq-281" value="&lt;b style=&quot;&quot;&gt;&lt;font style=&quot;font-size: 14px;&quot;&gt;ByPass_1&lt;/font&gt;&lt;/b&gt;" style="rounded=1;whiteSpace=wrap;html=1;fillColor=#ffcccc;strokeColor=#36393d;fontSize=16;" parent="1" vertex="1">
          <mxGeometry x="760" y="1120" width="80" height="80" as="geometry" />
        </mxCell>
        <mxCell id="pp8-QFKgKfyrIBCOwYfq-282" style="edgeStyle=orthogonalEdgeStyle;rounded=0;orthogonalLoop=1;jettySize=auto;html=1;exitX=1;exitY=0.5;exitDx=0;exitDy=0;entryX=0;entryY=0.5;entryDx=0;entryDy=0;" parent="1" source="pp8-QFKgKfyrIBCOwYfq-248" target="pp8-QFKgKfyrIBCOwYfq-281" edge="1">
          <mxGeometry relative="1" as="geometry" />
        </mxCell>
        <mxCell id="pp8-QFKgKfyrIBCOwYfq-303" style="edgeStyle=orthogonalEdgeStyle;rounded=0;orthogonalLoop=1;jettySize=auto;html=1;exitX=1;exitY=0.5;exitDx=0;exitDy=0;entryX=1;entryY=0.5;entryDx=0;entryDy=0;" parent="1" source="pp8-QFKgKfyrIBCOwYfq-283" target="pp8-QFKgKfyrIBCOwYfq-302" edge="1">
          <mxGeometry relative="1" as="geometry">
            <Array as="points">
              <mxPoint x="1240" y="860" />
              <mxPoint x="1240" y="1344" />
            </Array>
          </mxGeometry>
        </mxCell>
        <mxCell id="pp8-QFKgKfyrIBCOwYfq-331" style="edgeStyle=orthogonalEdgeStyle;rounded=0;orthogonalLoop=1;jettySize=auto;html=1;exitX=0.5;exitY=0;exitDx=0;exitDy=0;entryX=0.464;entryY=0;entryDx=0;entryDy=0;strokeColor=#FF0000;entryPerimeter=0;" parent="1" source="pp8-QFKgKfyrIBCOwYfq-283" target="pp8-QFKgKfyrIBCOwYfq-94" edge="1">
          <mxGeometry relative="1" as="geometry">
            <Array as="points">
              <mxPoint x="1101" y="480" />
              <mxPoint x="1101" y="460" />
              <mxPoint x="-729" y="460" />
            </Array>
          </mxGeometry>
        </mxCell>
        <mxCell id="pp8-QFKgKfyrIBCOwYfq-283" value="&lt;b style=&quot;font-size: 24px;&quot;&gt;&lt;font style=&quot;font-size: 24px;&quot;&gt;ROB&lt;/font&gt;&lt;/b&gt;" style="rounded=1;whiteSpace=wrap;html=1;fillColor=#ffe6cc;strokeColor=#d79b00;fontSize=24;" parent="1" vertex="1">
          <mxGeometry x="1040" y="480" width="120" height="760" as="geometry" />
        </mxCell>
        <mxCell id="pp8-QFKgKfyrIBCOwYfq-292" style="edgeStyle=orthogonalEdgeStyle;rounded=0;orthogonalLoop=1;jettySize=auto;html=1;exitX=1;exitY=0.5;exitDx=0;exitDy=0;" parent="1" source="pp8-QFKgKfyrIBCOwYfq-223" target="pp8-QFKgKfyrIBCOwYfq-283" edge="1">
          <mxGeometry relative="1" as="geometry">
            <mxPoint x="1037" y="630" as="targetPoint" />
            <Array as="points">
              <mxPoint x="740" y="600" />
              <mxPoint x="740" y="659" />
            </Array>
          </mxGeometry>
        </mxCell>
        <mxCell id="pp8-QFKgKfyrIBCOwYfq-293" style="edgeStyle=orthogonalEdgeStyle;rounded=0;orthogonalLoop=1;jettySize=auto;html=1;exitX=1;exitY=0.5;exitDx=0;exitDy=0;entryX=-0.016;entryY=0.319;entryDx=0;entryDy=0;entryPerimeter=0;" parent="1" source="pp8-QFKgKfyrIBCOwYfq-230" target="pp8-QFKgKfyrIBCOwYfq-283" edge="1">
          <mxGeometry relative="1" as="geometry">
            <mxPoint x="1040" y="700" as="targetPoint" />
            <Array as="points">
              <mxPoint x="840" y="800" />
              <mxPoint x="840" y="723" />
              <mxPoint x="1039" y="723" />
            </Array>
          </mxGeometry>
        </mxCell>
        <mxCell id="pp8-QFKgKfyrIBCOwYfq-295" style="edgeStyle=orthogonalEdgeStyle;rounded=0;orthogonalLoop=1;jettySize=auto;html=1;exitX=1;exitY=0.5;exitDx=0;exitDy=0;" parent="1" source="pp8-QFKgKfyrIBCOwYfq-241" edge="1">
          <mxGeometry relative="1" as="geometry">
            <mxPoint x="1040" y="780" as="targetPoint" />
            <Array as="points">
              <mxPoint x="860" y="1000" />
              <mxPoint x="860" y="780" />
              <mxPoint x="1040" y="780" />
            </Array>
          </mxGeometry>
        </mxCell>
        <mxCell id="pp8-QFKgKfyrIBCOwYfq-296" style="edgeStyle=orthogonalEdgeStyle;rounded=0;orthogonalLoop=1;jettySize=auto;html=1;exitX=1;exitY=0.5;exitDx=0;exitDy=0;" parent="1" source="pp8-QFKgKfyrIBCOwYfq-248" edge="1">
          <mxGeometry relative="1" as="geometry">
            <mxPoint x="1040" y="880" as="targetPoint" />
            <Array as="points">
              <mxPoint x="740" y="1200" />
              <mxPoint x="740" y="1240" />
              <mxPoint x="900" y="1240" />
              <mxPoint x="900" y="880" />
            </Array>
          </mxGeometry>
        </mxCell>
        <mxCell id="pp8-QFKgKfyrIBCOwYfq-297" style="edgeStyle=orthogonalEdgeStyle;rounded=0;orthogonalLoop=1;jettySize=auto;html=1;exitX=1;exitY=0.5;exitDx=0;exitDy=0;entryX=0;entryY=0.684;entryDx=0;entryDy=0;entryPerimeter=0;" parent="1" source="pp8-QFKgKfyrIBCOwYfq-274" target="pp8-QFKgKfyrIBCOwYfq-283" edge="1">
          <mxGeometry relative="1" as="geometry">
            <mxPoint x="1039" y="1010" as="targetPoint" />
            <Array as="points">
              <mxPoint x="1020" y="1400" />
              <mxPoint x="1020" y="1000" />
              <mxPoint x="1039" y="1000" />
            </Array>
          </mxGeometry>
        </mxCell>
        <mxCell id="pp8-QFKgKfyrIBCOwYfq-302" value="&lt;font style=&quot;font-size: 16px;&quot;&gt;&lt;b style=&quot;font-size: 16px;&quot;&gt;ARat&lt;/b&gt;&lt;/font&gt;" style="rounded=1;whiteSpace=wrap;html=1;fillColor=#ffcc99;strokeColor=#36393d;fontSize=16;" parent="1" vertex="1">
          <mxGeometry x="1080" y="1280" width="120" height="127.5" as="geometry" />
        </mxCell>
        <mxCell id="pp8-QFKgKfyrIBCOwYfq-304" style="edgeStyle=orthogonalEdgeStyle;rounded=0;orthogonalLoop=1;jettySize=auto;html=1;exitX=1;exitY=0.25;exitDx=0;exitDy=0;" parent="1" source="pp8-QFKgKfyrIBCOwYfq-189" edge="1">
          <mxGeometry relative="1" as="geometry">
            <mxPoint x="520" y="560" as="targetPoint" />
          </mxGeometry>
        </mxCell>
        <mxCell id="pp8-QFKgKfyrIBCOwYfq-309" style="edgeStyle=orthogonalEdgeStyle;rounded=0;orthogonalLoop=1;jettySize=auto;html=1;exitX=1;exitY=0.5;exitDx=0;exitDy=0;entryX=0;entryY=0.5;entryDx=0;entryDy=0;" parent="1" source="pp8-QFKgKfyrIBCOwYfq-210" target="pp8-QFKgKfyrIBCOwYfq-14" edge="1">
          <mxGeometry relative="1" as="geometry" />
        </mxCell>
        <mxCell id="pp8-QFKgKfyrIBCOwYfq-311" style="edgeStyle=orthogonalEdgeStyle;rounded=0;orthogonalLoop=1;jettySize=auto;html=1;exitX=1;exitY=0.5;exitDx=0;exitDy=0;entryX=0;entryY=0.5;entryDx=0;entryDy=0;" parent="1" source="pp8-QFKgKfyrIBCOwYfq-72" target="pp8-QFKgKfyrIBCOwYfq-28" edge="1">
          <mxGeometry relative="1" as="geometry" />
        </mxCell>
        <mxCell id="pp8-QFKgKfyrIBCOwYfq-315" style="edgeStyle=orthogonalEdgeStyle;rounded=0;orthogonalLoop=1;jettySize=auto;html=1;exitX=1;exitY=0.5;exitDx=0;exitDy=0;" parent="1" source="pp8-QFKgKfyrIBCOwYfq-24" target="pp8-QFKgKfyrIBCOwYfq-80" edge="1">
          <mxGeometry relative="1" as="geometry" />
        </mxCell>
        <mxCell id="pp8-QFKgKfyrIBCOwYfq-322" style="edgeStyle=orthogonalEdgeStyle;rounded=0;orthogonalLoop=1;jettySize=auto;html=1;exitX=1;exitY=0.25;exitDx=0;exitDy=0;entryX=0;entryY=0.5;entryDx=0;entryDy=0;" parent="1" source="pp8-QFKgKfyrIBCOwYfq-201" target="pp8-QFKgKfyrIBCOwYfq-265" edge="1">
          <mxGeometry relative="1" as="geometry" />
        </mxCell>
        <mxCell id="pp8-QFKgKfyrIBCOwYfq-325" value="" style="endArrow=none;html=1;rounded=0;" parent="1" edge="1">
          <mxGeometry width="50" height="50" relative="1" as="geometry">
            <mxPoint x="292" y="124" as="sourcePoint" />
            <mxPoint x="302" y="114" as="targetPoint" />
          </mxGeometry>
        </mxCell>
        <mxCell id="pp8-QFKgKfyrIBCOwYfq-326" value="4" style="text;html=1;align=center;verticalAlign=middle;resizable=0;points=[];autosize=1;strokeColor=none;fillColor=none;" parent="1" vertex="1">
          <mxGeometry x="283" y="115" width="30" height="30" as="geometry" />
        </mxCell>
        <mxCell id="pp8-QFKgKfyrIBCOwYfq-327" value="" style="endArrow=none;html=1;rounded=0;" parent="1" edge="1">
          <mxGeometry width="50" height="50" relative="1" as="geometry">
            <mxPoint x="-29" y="124" as="sourcePoint" />
            <mxPoint x="-19" y="114" as="targetPoint" />
          </mxGeometry>
        </mxCell>
        <mxCell id="pp8-QFKgKfyrIBCOwYfq-328" value="4" style="text;html=1;align=center;verticalAlign=middle;resizable=0;points=[];autosize=1;strokeColor=none;fillColor=none;" parent="1" vertex="1">
          <mxGeometry x="-38" y="115" width="30" height="30" as="geometry" />
        </mxCell>
        <mxCell id="pp8-QFKgKfyrIBCOwYfq-330" style="edgeStyle=orthogonalEdgeStyle;rounded=0;orthogonalLoop=1;jettySize=auto;html=1;exitX=1;exitY=0.5;exitDx=0;exitDy=0;entryX=0;entryY=0.5;entryDx=0;entryDy=0;" parent="1" source="pp8-QFKgKfyrIBCOwYfq-40" target="pp8-QFKgKfyrIBCOwYfq-94" edge="1">
          <mxGeometry relative="1" as="geometry">
            <Array as="points">
              <mxPoint x="1360" y="120" />
              <mxPoint x="1360" y="400" />
              <mxPoint x="-880" y="400" />
              <mxPoint x="-880" y="1000" />
            </Array>
          </mxGeometry>
        </mxCell>
        <mxCell id="pp8-QFKgKfyrIBCOwYfq-337" value="&lt;font style=&quot;font-size: 14px;&quot;&gt;npc&lt;/font&gt;" style="text;html=1;align=center;verticalAlign=middle;resizable=0;points=[];autosize=1;strokeColor=none;fillColor=none;fontStyle=1;fontSize=14;" parent="1" vertex="1">
          <mxGeometry x="-749.5" y="78" width="50" height="30" as="geometry" />
        </mxCell>
        <mxCell id="pp8-QFKgKfyrIBCOwYfq-339" value="&lt;font style=&quot;font-size: 14px;&quot;&gt;pc&lt;/font&gt;" style="text;html=1;align=center;verticalAlign=middle;resizable=0;points=[];autosize=1;strokeColor=none;fillColor=none;fontStyle=1;fontSize=14;" parent="1" vertex="1">
          <mxGeometry x="-535" y="92" width="40" height="30" as="geometry" />
        </mxCell>
        <mxCell id="pp8-QFKgKfyrIBCOwYfq-340" value="" style="shape=waypoint;sketch=0;fillStyle=solid;size=6;pointerEvents=1;points=[];fillColor=none;resizable=0;rotatable=0;perimeter=centerPerimeter;snapToPoint=1;" parent="1" vertex="1">
          <mxGeometry x="-550" y="109" width="20" height="20" as="geometry" />
        </mxCell>
        <mxCell id="pp8-QFKgKfyrIBCOwYfq-341" value="&lt;font style=&quot;font-size: 14px;&quot;&gt;pc&lt;/font&gt;" style="text;html=1;align=center;verticalAlign=middle;resizable=0;points=[];autosize=1;strokeColor=none;fillColor=none;fontStyle=1;fontSize=14;" parent="1" vertex="1">
          <mxGeometry x="-420" y="92" width="40" height="30" as="geometry" />
        </mxCell>
        <mxCell id="pp8-QFKgKfyrIBCOwYfq-343" value="" style="endArrow=none;html=1;rounded=0;" parent="1" edge="1">
          <mxGeometry width="50" height="50" relative="1" as="geometry">
            <mxPoint x="-150" y="124" as="sourcePoint" />
            <mxPoint x="-140" y="114" as="targetPoint" />
          </mxGeometry>
        </mxCell>
        <mxCell id="pp8-QFKgKfyrIBCOwYfq-344" value="4" style="text;html=1;align=center;verticalAlign=middle;resizable=0;points=[];autosize=1;strokeColor=none;fillColor=none;" parent="1" vertex="1">
          <mxGeometry x="-159" y="115" width="30" height="30" as="geometry" />
        </mxCell>
        <mxCell id="pp8-QFKgKfyrIBCOwYfq-345" value="pack_IF" style="text;html=1;align=center;verticalAlign=middle;resizable=0;points=[];autosize=1;strokeColor=none;fillColor=none;fontStyle=1;fontSize=14;" parent="1" vertex="1">
          <mxGeometry x="-205" y="92" width="80" height="30" as="geometry" />
        </mxCell>
        <mxCell id="pp8-QFKgKfyrIBCOwYfq-346" value="pack_IF" style="text;html=1;align=center;verticalAlign=middle;resizable=0;points=[];autosize=1;strokeColor=none;fillColor=none;fontStyle=1;fontSize=14;" parent="1" vertex="1">
          <mxGeometry x="-85" y="92" width="80" height="30" as="geometry" />
        </mxCell>
        <mxCell id="pp8-QFKgKfyrIBCOwYfq-347" value="pack_PD" style="text;html=1;align=center;verticalAlign=middle;resizable=0;points=[];autosize=1;strokeColor=none;fillColor=none;fontStyle=1;fontSize=14;" parent="1" vertex="1">
          <mxGeometry x="115" y="92" width="80" height="30" as="geometry" />
        </mxCell>
        <mxCell id="pp8-QFKgKfyrIBCOwYfq-349" value="pack_FQ" style="text;html=1;align=center;verticalAlign=middle;resizable=0;points=[];autosize=1;strokeColor=none;fillColor=none;fontStyle=1;fontSize=14;" parent="1" vertex="1">
          <mxGeometry x="522" y="6" width="80" height="30" as="geometry" />
        </mxCell>
        <mxCell id="pp8-QFKgKfyrIBCOwYfq-350" value="pack_FQ" style="text;html=1;align=center;verticalAlign=middle;resizable=0;points=[];autosize=1;strokeColor=none;fillColor=none;fontStyle=1;fontSize=14;" parent="1" vertex="1">
          <mxGeometry x="519" y="63" width="80" height="30" as="geometry" />
        </mxCell>
        <mxCell id="pp8-QFKgKfyrIBCOwYfq-351" value="pack_FQ" style="text;html=1;align=center;verticalAlign=middle;resizable=0;points=[];autosize=1;strokeColor=none;fillColor=none;fontStyle=1;fontSize=14;" parent="1" vertex="1">
          <mxGeometry x="520" y="125" width="80" height="30" as="geometry" />
        </mxCell>
        <mxCell id="pp8-QFKgKfyrIBCOwYfq-352" value="pack_FQ" style="text;html=1;align=center;verticalAlign=middle;resizable=0;points=[];autosize=1;strokeColor=none;fillColor=none;fontStyle=1;fontSize=14;" parent="1" vertex="1">
          <mxGeometry x="522" y="183" width="80" height="30" as="geometry" />
        </mxCell>
        <mxCell id="pp8-QFKgKfyrIBCOwYfq-353" value="" style="endArrow=none;html=1;rounded=0;" parent="1" edge="1">
          <mxGeometry width="50" height="50" relative="1" as="geometry">
            <mxPoint x="898" y="124" as="sourcePoint" />
            <mxPoint x="908" y="114" as="targetPoint" />
          </mxGeometry>
        </mxCell>
        <mxCell id="pp8-QFKgKfyrIBCOwYfq-354" value="4" style="text;html=1;align=center;verticalAlign=middle;resizable=0;points=[];autosize=1;strokeColor=none;fillColor=none;" parent="1" vertex="1">
          <mxGeometry x="889" y="115" width="30" height="30" as="geometry" />
        </mxCell>
        <mxCell id="pp8-QFKgKfyrIBCOwYfq-355" value="pack_ID" style="text;html=1;align=center;verticalAlign=middle;resizable=0;points=[];autosize=1;strokeColor=none;fillColor=none;fontStyle=1;fontSize=14;" parent="1" vertex="1">
          <mxGeometry x="790" y="95" width="80" height="30" as="geometry" />
        </mxCell>
        <mxCell id="pp8-QFKgKfyrIBCOwYfq-356" style="edgeStyle=orthogonalEdgeStyle;rounded=0;orthogonalLoop=1;jettySize=auto;html=1;exitX=1;exitY=0.5;exitDx=0;exitDy=0;entryX=0;entryY=0.5;entryDx=0;entryDy=0;" parent="1" edge="1">
          <mxGeometry relative="1" as="geometry">
            <mxPoint x="958.5" y="120" as="sourcePoint" />
            <mxPoint x="1038.5" y="120" as="targetPoint" />
          </mxGeometry>
        </mxCell>
        <mxCell id="pp8-QFKgKfyrIBCOwYfq-357" value="" style="endArrow=none;html=1;rounded=0;" parent="1" edge="1">
          <mxGeometry width="50" height="50" relative="1" as="geometry">
            <mxPoint x="1017.5" y="124" as="sourcePoint" />
            <mxPoint x="1027.5" y="114" as="targetPoint" />
          </mxGeometry>
        </mxCell>
        <mxCell id="pp8-QFKgKfyrIBCOwYfq-358" value="4" style="text;html=1;align=center;verticalAlign=middle;resizable=0;points=[];autosize=1;strokeColor=none;fillColor=none;" parent="1" vertex="1">
          <mxGeometry x="1008.5" y="115" width="30" height="30" as="geometry" />
        </mxCell>
        <mxCell id="pp8-QFKgKfyrIBCOwYfq-359" value="pack_ID" style="text;html=1;align=center;verticalAlign=middle;resizable=0;points=[];autosize=1;strokeColor=none;fillColor=none;fontStyle=1;fontSize=14;" parent="1" vertex="1">
          <mxGeometry x="952.5" y="95" width="80" height="30" as="geometry" />
        </mxCell>
        <mxCell id="pp8-QFKgKfyrIBCOwYfq-365" style="edgeStyle=orthogonalEdgeStyle;rounded=0;orthogonalLoop=1;jettySize=auto;html=1;exitX=1;exitY=0.5;exitDx=0;exitDy=0;" parent="1" edge="1">
          <mxGeometry relative="1" as="geometry">
            <mxPoint x="1159" y="120" as="sourcePoint" />
            <mxPoint x="1239" y="120" as="targetPoint" />
          </mxGeometry>
        </mxCell>
        <mxCell id="pp8-QFKgKfyrIBCOwYfq-366" style="edgeStyle=orthogonalEdgeStyle;rounded=0;orthogonalLoop=1;jettySize=auto;html=1;exitX=1;exitY=0.5;exitDx=0;exitDy=0;entryX=0;entryY=0.5;entryDx=0;entryDy=0;" parent="1" edge="1">
          <mxGeometry relative="1" as="geometry">
            <mxPoint x="1158.5" y="120" as="sourcePoint" />
            <mxPoint x="1238.5" y="120" as="targetPoint" />
          </mxGeometry>
        </mxCell>
        <mxCell id="pp8-QFKgKfyrIBCOwYfq-367" value="" style="endArrow=none;html=1;rounded=0;" parent="1" edge="1">
          <mxGeometry width="50" height="50" relative="1" as="geometry">
            <mxPoint x="1217.5" y="124" as="sourcePoint" />
            <mxPoint x="1227.5" y="114" as="targetPoint" />
          </mxGeometry>
        </mxCell>
        <mxCell id="pp8-QFKgKfyrIBCOwYfq-368" value="4" style="text;html=1;align=center;verticalAlign=middle;resizable=0;points=[];autosize=1;strokeColor=none;fillColor=none;" parent="1" vertex="1">
          <mxGeometry x="1208.5" y="115" width="30" height="30" as="geometry" />
        </mxCell>
        <mxCell id="pp8-QFKgKfyrIBCOwYfq-369" value="pack_RN" style="text;html=1;align=center;verticalAlign=middle;resizable=0;points=[];autosize=1;strokeColor=none;fillColor=none;fontStyle=1;fontSize=14;" parent="1" vertex="1">
          <mxGeometry x="1152.5" y="95" width="80" height="30" as="geometry" />
        </mxCell>
        <mxCell id="pp8-QFKgKfyrIBCOwYfq-370" value="pack_DP" style="text;html=1;align=center;verticalAlign=middle;resizable=0;points=[];autosize=1;strokeColor=none;fillColor=none;fontStyle=1;fontSize=14;" parent="1" vertex="1">
          <mxGeometry x="-585" y="575" width="80" height="30" as="geometry" />
        </mxCell>
        <mxCell id="pp8-QFKgKfyrIBCOwYfq-371" value="" style="endArrow=none;html=1;rounded=0;" parent="1" edge="1">
          <mxGeometry width="50" height="50" relative="1" as="geometry">
            <mxPoint x="-511" y="603" as="sourcePoint" />
            <mxPoint x="-501" y="593" as="targetPoint" />
          </mxGeometry>
        </mxCell>
        <mxCell id="pp8-QFKgKfyrIBCOwYfq-372" value="4" style="text;html=1;align=center;verticalAlign=middle;resizable=0;points=[];autosize=1;strokeColor=none;fillColor=none;" parent="1" vertex="1">
          <mxGeometry x="-520" y="594" width="30" height="30" as="geometry" />
        </mxCell>
        <mxCell id="pp8-QFKgKfyrIBCOwYfq-373" value="pack_DP" style="text;html=1;align=center;verticalAlign=middle;resizable=0;points=[];autosize=1;strokeColor=none;fillColor=none;fontStyle=1;fontSize=14;" parent="1" vertex="1">
          <mxGeometry x="-585" y="774.5" width="80" height="30" as="geometry" />
        </mxCell>
        <mxCell id="pp8-QFKgKfyrIBCOwYfq-374" value="" style="endArrow=none;html=1;rounded=0;" parent="1" edge="1">
          <mxGeometry width="50" height="50" relative="1" as="geometry">
            <mxPoint x="-511" y="802.5" as="sourcePoint" />
            <mxPoint x="-501" y="792.5" as="targetPoint" />
          </mxGeometry>
        </mxCell>
        <mxCell id="pp8-QFKgKfyrIBCOwYfq-375" value="4" style="text;html=1;align=center;verticalAlign=middle;resizable=0;points=[];autosize=1;strokeColor=none;fillColor=none;" parent="1" vertex="1">
          <mxGeometry x="-520" y="793.5" width="30" height="30" as="geometry" />
        </mxCell>
        <mxCell id="pp8-QFKgKfyrIBCOwYfq-376" value="pack_DP" style="text;html=1;align=center;verticalAlign=middle;resizable=0;points=[];autosize=1;strokeColor=none;fillColor=none;fontStyle=1;fontSize=14;" parent="1" vertex="1">
          <mxGeometry x="-585" y="976" width="80" height="30" as="geometry" />
        </mxCell>
        <mxCell id="pp8-QFKgKfyrIBCOwYfq-377" value="" style="endArrow=none;html=1;rounded=0;" parent="1" edge="1">
          <mxGeometry width="50" height="50" relative="1" as="geometry">
            <mxPoint x="-511" y="1004" as="sourcePoint" />
            <mxPoint x="-501" y="994" as="targetPoint" />
          </mxGeometry>
        </mxCell>
        <mxCell id="pp8-QFKgKfyrIBCOwYfq-378" value="4" style="text;html=1;align=center;verticalAlign=middle;resizable=0;points=[];autosize=1;strokeColor=none;fillColor=none;" parent="1" vertex="1">
          <mxGeometry x="-520" y="995" width="30" height="30" as="geometry" />
        </mxCell>
        <mxCell id="pp8-QFKgKfyrIBCOwYfq-379" value="pack_DP" style="text;html=1;align=center;verticalAlign=middle;resizable=0;points=[];autosize=1;strokeColor=none;fillColor=none;fontStyle=1;fontSize=14;" parent="1" vertex="1">
          <mxGeometry x="-585" y="1175.5" width="80" height="30" as="geometry" />
        </mxCell>
        <mxCell id="pp8-QFKgKfyrIBCOwYfq-380" value="" style="endArrow=none;html=1;rounded=0;" parent="1" edge="1">
          <mxGeometry width="50" height="50" relative="1" as="geometry">
            <mxPoint x="-511" y="1203.5" as="sourcePoint" />
            <mxPoint x="-501" y="1193.5" as="targetPoint" />
          </mxGeometry>
        </mxCell>
        <mxCell id="pp8-QFKgKfyrIBCOwYfq-381" value="4" style="text;html=1;align=center;verticalAlign=middle;resizable=0;points=[];autosize=1;strokeColor=none;fillColor=none;" parent="1" vertex="1">
          <mxGeometry x="-520" y="1194.5" width="30" height="30" as="geometry" />
        </mxCell>
        <mxCell id="pp8-QFKgKfyrIBCOwYfq-382" value="pack_DP" style="text;html=1;align=center;verticalAlign=middle;resizable=0;points=[];autosize=1;strokeColor=none;fillColor=none;fontStyle=1;fontSize=14;" parent="1" vertex="1">
          <mxGeometry x="-585" y="1374.5" width="80" height="30" as="geometry" />
        </mxCell>
        <mxCell id="pp8-QFKgKfyrIBCOwYfq-383" value="" style="endArrow=none;html=1;rounded=0;" parent="1" edge="1">
          <mxGeometry width="50" height="50" relative="1" as="geometry">
            <mxPoint x="-511" y="1402.5" as="sourcePoint" />
            <mxPoint x="-501" y="1392.5" as="targetPoint" />
          </mxGeometry>
        </mxCell>
        <mxCell id="pp8-QFKgKfyrIBCOwYfq-384" value="4" style="text;html=1;align=center;verticalAlign=middle;resizable=0;points=[];autosize=1;strokeColor=none;fillColor=none;" parent="1" vertex="1">
          <mxGeometry x="-520" y="1393.5" width="30" height="30" as="geometry" />
        </mxCell>
        <mxCell id="pp8-QFKgKfyrIBCOwYfq-385" value="pack_IS" style="text;html=1;align=center;verticalAlign=middle;resizable=0;points=[];autosize=1;strokeColor=none;fillColor=none;fontStyle=1;fontSize=14;" parent="1" vertex="1">
          <mxGeometry x="-38" y="775" width="80" height="30" as="geometry" />
        </mxCell>
        <mxCell id="pp8-QFKgKfyrIBCOwYfq-386" value="pack_IS" style="text;html=1;align=center;verticalAlign=middle;resizable=0;points=[];autosize=1;strokeColor=none;fillColor=none;fontStyle=1;fontSize=14;" parent="1" vertex="1">
          <mxGeometry x="-40" y="975" width="80" height="30" as="geometry" />
        </mxCell>
        <mxCell id="pp8-QFKgKfyrIBCOwYfq-388" value="pack_IS" style="text;html=1;align=center;verticalAlign=middle;resizable=0;points=[];autosize=1;strokeColor=none;fillColor=none;fontStyle=1;fontSize=14;" parent="1" vertex="1">
          <mxGeometry x="-40" y="1175.5" width="80" height="30" as="geometry" />
        </mxCell>
        <mxCell id="pp8-QFKgKfyrIBCOwYfq-389" value="pack_IS" style="text;html=1;align=center;verticalAlign=middle;resizable=0;points=[];autosize=1;strokeColor=none;fillColor=none;fontStyle=1;fontSize=14;" parent="1" vertex="1">
          <mxGeometry x="-38" y="1374.5" width="80" height="30" as="geometry" />
        </mxCell>
        <mxCell id="pp8-QFKgKfyrIBCOwYfq-391" value="raddr" style="text;html=1;align=center;verticalAlign=middle;resizable=0;points=[];autosize=1;strokeColor=none;fillColor=none;fontStyle=1;fontSize=14;" parent="1" vertex="1">
          <mxGeometry x="90" y="576" width="60" height="30" as="geometry" />
        </mxCell>
        <mxCell id="pp8-QFKgKfyrIBCOwYfq-392" value="" style="endArrow=none;html=1;rounded=0;" parent="1" edge="1">
          <mxGeometry width="50" height="50" relative="1" as="geometry">
            <mxPoint x="142" y="604" as="sourcePoint" />
            <mxPoint x="152" y="594" as="targetPoint" />
          </mxGeometry>
        </mxCell>
        <mxCell id="pp8-QFKgKfyrIBCOwYfq-393" value="2" style="text;html=1;align=center;verticalAlign=middle;resizable=0;points=[];autosize=1;strokeColor=none;fillColor=none;" parent="1" vertex="1">
          <mxGeometry x="133" y="595" width="30" height="30" as="geometry" />
        </mxCell>
        <mxCell id="pp8-QFKgKfyrIBCOwYfq-394" value="raddr" style="text;html=1;align=center;verticalAlign=middle;resizable=0;points=[];autosize=1;strokeColor=none;fillColor=none;fontStyle=1;fontSize=14;" parent="1" vertex="1">
          <mxGeometry x="85" y="754.5" width="60" height="30" as="geometry" />
        </mxCell>
        <mxCell id="pp8-QFKgKfyrIBCOwYfq-395" value="" style="endArrow=none;html=1;rounded=0;" parent="1" edge="1">
          <mxGeometry width="50" height="50" relative="1" as="geometry">
            <mxPoint x="139" y="765" as="sourcePoint" />
            <mxPoint x="149" y="755" as="targetPoint" />
          </mxGeometry>
        </mxCell>
        <mxCell id="pp8-QFKgKfyrIBCOwYfq-396" value="2" style="text;html=1;align=center;verticalAlign=middle;resizable=0;points=[];autosize=1;strokeColor=none;fillColor=none;" parent="1" vertex="1">
          <mxGeometry x="130" y="756" width="30" height="30" as="geometry" />
        </mxCell>
        <mxCell id="pp8-QFKgKfyrIBCOwYfq-397" value="raddr" style="text;html=1;align=center;verticalAlign=middle;resizable=0;points=[];autosize=1;strokeColor=none;fillColor=none;fontStyle=1;fontSize=14;" parent="1" vertex="1">
          <mxGeometry x="87" y="976" width="60" height="30" as="geometry" />
        </mxCell>
        <mxCell id="pp8-QFKgKfyrIBCOwYfq-398" value="" style="endArrow=none;html=1;rounded=0;" parent="1" edge="1">
          <mxGeometry width="50" height="50" relative="1" as="geometry">
            <mxPoint x="139" y="1004" as="sourcePoint" />
            <mxPoint x="149" y="994" as="targetPoint" />
          </mxGeometry>
        </mxCell>
        <mxCell id="pp8-QFKgKfyrIBCOwYfq-399" value="2" style="text;html=1;align=center;verticalAlign=middle;resizable=0;points=[];autosize=1;strokeColor=none;fillColor=none;" parent="1" vertex="1">
          <mxGeometry x="130" y="995" width="30" height="30" as="geometry" />
        </mxCell>
        <mxCell id="pp8-QFKgKfyrIBCOwYfq-400" value="raddr" style="text;html=1;align=center;verticalAlign=middle;resizable=0;points=[];autosize=1;strokeColor=none;fillColor=none;fontStyle=1;fontSize=14;" parent="1" vertex="1">
          <mxGeometry x="87" y="1177" width="60" height="30" as="geometry" />
        </mxCell>
        <mxCell id="pp8-QFKgKfyrIBCOwYfq-401" value="" style="endArrow=none;html=1;rounded=0;" parent="1" edge="1">
          <mxGeometry width="50" height="50" relative="1" as="geometry">
            <mxPoint x="139" y="1205" as="sourcePoint" />
            <mxPoint x="149" y="1195" as="targetPoint" />
          </mxGeometry>
        </mxCell>
        <mxCell id="pp8-QFKgKfyrIBCOwYfq-402" value="2" style="text;html=1;align=center;verticalAlign=middle;resizable=0;points=[];autosize=1;strokeColor=none;fillColor=none;" parent="1" vertex="1">
          <mxGeometry x="130" y="1196" width="30" height="30" as="geometry" />
        </mxCell>
        <mxCell id="pp8-QFKgKfyrIBCOwYfq-406" value="raddr" style="text;html=1;align=center;verticalAlign=middle;resizable=0;points=[];autosize=1;strokeColor=none;fillColor=none;fontStyle=1;fontSize=14;" parent="1" vertex="1">
          <mxGeometry x="70" y="1374.5" width="60" height="30" as="geometry" />
        </mxCell>
        <mxCell id="pp8-QFKgKfyrIBCOwYfq-407" value="" style="endArrow=none;html=1;rounded=0;" parent="1" edge="1">
          <mxGeometry width="50" height="50" relative="1" as="geometry">
            <mxPoint x="109" y="1403.5" as="sourcePoint" />
            <mxPoint x="119" y="1393.5" as="targetPoint" />
          </mxGeometry>
        </mxCell>
        <mxCell id="pp8-QFKgKfyrIBCOwYfq-408" value="2" style="text;html=1;align=center;verticalAlign=middle;resizable=0;points=[];autosize=1;strokeColor=none;fillColor=none;" parent="1" vertex="1">
          <mxGeometry x="100" y="1394.5" width="30" height="30" as="geometry" />
        </mxCell>
        <mxCell id="pp8-QFKgKfyrIBCOwYfq-409" value="imm" style="text;html=1;align=center;verticalAlign=middle;resizable=0;points=[];autosize=1;strokeColor=none;fillColor=none;fontStyle=1;fontSize=14;" parent="1" vertex="1">
          <mxGeometry x="137" y="1442.5" width="50" height="30" as="geometry" />
        </mxCell>
        <mxCell id="pp8-QFKgKfyrIBCOwYfq-410" value="&lt;font style=&quot;font-size: 14px;&quot;&gt;mem_addr&lt;/font&gt;" style="text;html=1;align=center;verticalAlign=middle;resizable=0;points=[];autosize=1;strokeColor=none;fillColor=none;fontStyle=1" parent="1" vertex="1">
          <mxGeometry x="314" y="1376" width="90" height="30" as="geometry" />
        </mxCell>
        <mxCell id="pp8-QFKgKfyrIBCOwYfq-411" value="rdata" style="text;html=1;align=center;verticalAlign=middle;resizable=0;points=[];autosize=1;strokeColor=none;fillColor=none;fontStyle=1;fontSize=14;" parent="1" vertex="1">
          <mxGeometry x="323.5" y="1177" width="60" height="30" as="geometry" />
        </mxCell>
        <mxCell id="pp8-QFKgKfyrIBCOwYfq-412" value="" style="endArrow=none;html=1;rounded=0;" parent="1" edge="1">
          <mxGeometry width="50" height="50" relative="1" as="geometry">
            <mxPoint x="375.5" y="1205" as="sourcePoint" />
            <mxPoint x="385.5" y="1195" as="targetPoint" />
          </mxGeometry>
        </mxCell>
        <mxCell id="pp8-QFKgKfyrIBCOwYfq-413" value="2" style="text;html=1;align=center;verticalAlign=middle;resizable=0;points=[];autosize=1;strokeColor=none;fillColor=none;" parent="1" vertex="1">
          <mxGeometry x="366.5" y="1196" width="30" height="30" as="geometry" />
        </mxCell>
        <mxCell id="pp8-QFKgKfyrIBCOwYfq-414" value="rdata" style="text;html=1;align=center;verticalAlign=middle;resizable=0;points=[];autosize=1;strokeColor=none;fillColor=none;fontStyle=1;fontSize=14;" parent="1" vertex="1">
          <mxGeometry x="323.5" y="977" width="60" height="30" as="geometry" />
        </mxCell>
        <mxCell id="pp8-QFKgKfyrIBCOwYfq-415" value="" style="endArrow=none;html=1;rounded=0;" parent="1" edge="1">
          <mxGeometry width="50" height="50" relative="1" as="geometry">
            <mxPoint x="375.5" y="1005" as="sourcePoint" />
            <mxPoint x="385.5" y="995" as="targetPoint" />
          </mxGeometry>
        </mxCell>
        <mxCell id="pp8-QFKgKfyrIBCOwYfq-416" value="2" style="text;html=1;align=center;verticalAlign=middle;resizable=0;points=[];autosize=1;strokeColor=none;fillColor=none;" parent="1" vertex="1">
          <mxGeometry x="366.5" y="996" width="30" height="30" as="geometry" />
        </mxCell>
        <mxCell id="pp8-QFKgKfyrIBCOwYfq-417" value="rdata" style="text;html=1;align=center;verticalAlign=middle;resizable=0;points=[];autosize=1;strokeColor=none;fillColor=none;fontStyle=1;fontSize=14;" parent="1" vertex="1">
          <mxGeometry x="315" y="754.5" width="60" height="30" as="geometry" />
        </mxCell>
        <mxCell id="pp8-QFKgKfyrIBCOwYfq-418" value="" style="endArrow=none;html=1;rounded=0;" parent="1" edge="1">
          <mxGeometry width="50" height="50" relative="1" as="geometry">
            <mxPoint x="371" y="765" as="sourcePoint" />
            <mxPoint x="381" y="755" as="targetPoint" />
          </mxGeometry>
        </mxCell>
        <mxCell id="pp8-QFKgKfyrIBCOwYfq-419" value="2" style="text;html=1;align=center;verticalAlign=middle;resizable=0;points=[];autosize=1;strokeColor=none;fillColor=none;" parent="1" vertex="1">
          <mxGeometry x="362" y="756" width="30" height="30" as="geometry" />
        </mxCell>
        <mxCell id="pp8-QFKgKfyrIBCOwYfq-424" value="rdata" style="text;html=1;align=center;verticalAlign=middle;resizable=0;points=[];autosize=1;strokeColor=none;fillColor=none;fontStyle=1;fontSize=14;" parent="1" vertex="1">
          <mxGeometry x="328" y="575.5" width="60" height="30" as="geometry" />
        </mxCell>
        <mxCell id="pp8-QFKgKfyrIBCOwYfq-425" value="" style="endArrow=none;html=1;rounded=0;" parent="1" edge="1">
          <mxGeometry width="50" height="50" relative="1" as="geometry">
            <mxPoint x="380" y="603.5" as="sourcePoint" />
            <mxPoint x="390" y="593.5" as="targetPoint" />
          </mxGeometry>
        </mxCell>
        <mxCell id="pp8-QFKgKfyrIBCOwYfq-426" value="2" style="text;html=1;align=center;verticalAlign=middle;resizable=0;points=[];autosize=1;strokeColor=none;fillColor=none;" parent="1" vertex="1">
          <mxGeometry x="371" y="594.5" width="30" height="30" as="geometry" />
        </mxCell>
        <mxCell id="pp8-QFKgKfyrIBCOwYfq-427" value="" style="shape=waypoint;sketch=0;fillStyle=solid;size=6;pointerEvents=1;points=[];fillColor=none;resizable=0;rotatable=0;perimeter=centerPerimeter;snapToPoint=1;" parent="1" vertex="1">
          <mxGeometry x="750" y="990" width="20" height="20" as="geometry" />
        </mxCell>
        <mxCell id="pp8-QFKgKfyrIBCOwYfq-431" value="" style="shape=waypoint;sketch=0;fillStyle=solid;size=6;pointerEvents=1;points=[];fillColor=none;resizable=0;rotatable=0;perimeter=centerPerimeter;snapToPoint=1;" parent="1" vertex="1">
          <mxGeometry x="740" y="790" width="20" height="20" as="geometry" />
        </mxCell>
        <mxCell id="pp8-QFKgKfyrIBCOwYfq-432" value="" style="shape=waypoint;sketch=0;fillStyle=solid;size=6;pointerEvents=1;points=[];fillColor=none;resizable=0;rotatable=0;perimeter=centerPerimeter;snapToPoint=1;" parent="1" vertex="1">
          <mxGeometry x="730" y="590" width="20" height="20" as="geometry" />
        </mxCell>
        <mxCell id="pp8-QFKgKfyrIBCOwYfq-434" value="" style="shape=waypoint;sketch=0;fillStyle=solid;size=6;pointerEvents=1;points=[];fillColor=none;resizable=0;rotatable=0;perimeter=centerPerimeter;snapToPoint=1;" parent="1" vertex="1">
          <mxGeometry x="730" y="1190" width="20" height="20" as="geometry" />
        </mxCell>
        <mxCell id="pp8-QFKgKfyrIBCOwYfq-436" value="&lt;b&gt;&lt;font style=&quot;font-size: 14px;&quot;&gt;wvalid&lt;/font&gt;&lt;/b&gt;" style="text;html=1;align=center;verticalAlign=middle;resizable=0;points=[];autosize=1;strokeColor=none;fillColor=none;" parent="1" vertex="1">
          <mxGeometry x="338" y="1415" width="70" height="30" as="geometry" />
        </mxCell>
        <mxCell id="pp8-QFKgKfyrIBCOwYfq-438" value="" style="endArrow=none;html=1;rounded=0;strokeColor=#FF0000;fontColor=#FF0000;" parent="1" edge="1">
          <mxGeometry width="50" height="50" relative="1" as="geometry">
            <mxPoint x="499" y="604" as="sourcePoint" />
            <mxPoint x="509" y="594" as="targetPoint" />
          </mxGeometry>
        </mxCell>
        <mxCell id="pp8-QFKgKfyrIBCOwYfq-439" value="2" style="text;html=1;align=center;verticalAlign=middle;resizable=0;points=[];autosize=1;strokeColor=none;fillColor=none;fontColor=#FF0000;" parent="1" vertex="1">
          <mxGeometry x="490" y="595" width="30" height="30" as="geometry" />
        </mxCell>
        <mxCell id="pp8-QFKgKfyrIBCOwYfq-440" value="" style="endArrow=none;html=1;rounded=0;strokeColor=#FF0000;fontColor=#FF0000;" parent="1" edge="1">
          <mxGeometry width="50" height="50" relative="1" as="geometry">
            <mxPoint x="498.5" y="804.5" as="sourcePoint" />
            <mxPoint x="508.5" y="794.5" as="targetPoint" />
          </mxGeometry>
        </mxCell>
        <mxCell id="pp8-QFKgKfyrIBCOwYfq-441" value="2" style="text;html=1;align=center;verticalAlign=middle;resizable=0;points=[];autosize=1;strokeColor=none;fillColor=none;fontColor=#FF0000;" parent="1" vertex="1">
          <mxGeometry x="489.5" y="795.5" width="30" height="30" as="geometry" />
        </mxCell>
        <mxCell id="pp8-QFKgKfyrIBCOwYfq-442" value="" style="endArrow=none;html=1;rounded=0;strokeColor=#FF0000;fontColor=#FF0000;" parent="1" edge="1">
          <mxGeometry width="50" height="50" relative="1" as="geometry">
            <mxPoint x="539" y="964" as="sourcePoint" />
            <mxPoint x="549" y="954" as="targetPoint" />
          </mxGeometry>
        </mxCell>
        <mxCell id="pp8-QFKgKfyrIBCOwYfq-443" value="2" style="text;html=1;align=center;verticalAlign=middle;resizable=0;points=[];autosize=1;strokeColor=none;fillColor=none;fontColor=#FF0000;" parent="1" vertex="1">
          <mxGeometry x="530" y="955" width="30" height="30" as="geometry" />
        </mxCell>
        <mxCell id="pp8-QFKgKfyrIBCOwYfq-444" value="" style="endArrow=none;html=1;rounded=0;strokeColor=#FF0000;fontColor=#FF0000;" parent="1" edge="1">
          <mxGeometry width="50" height="50" relative="1" as="geometry">
            <mxPoint x="520" y="1050" as="sourcePoint" />
            <mxPoint x="530" y="1040" as="targetPoint" />
          </mxGeometry>
        </mxCell>
        <mxCell id="pp8-QFKgKfyrIBCOwYfq-446" value="2" style="text;html=1;align=center;verticalAlign=middle;resizable=0;points=[];autosize=1;strokeColor=none;fillColor=none;fontColor=#FF0000;" parent="1" vertex="1">
          <mxGeometry x="512" y="1037.5" width="30" height="30" as="geometry" />
        </mxCell>
        <mxCell id="pp8-QFKgKfyrIBCOwYfq-447" value="src1" style="text;html=1;align=center;verticalAlign=middle;resizable=0;points=[];autosize=1;strokeColor=none;fillColor=none;fontStyle=1;fontSize=14;" parent="1" vertex="1">
          <mxGeometry x="460" y="536.5" width="50" height="30" as="geometry" />
        </mxCell>
        <mxCell id="pp8-QFKgKfyrIBCOwYfq-448" value="src2" style="text;html=1;align=center;verticalAlign=middle;resizable=0;points=[];autosize=1;strokeColor=none;fillColor=none;fontStyle=1;fontSize=14;" parent="1" vertex="1">
          <mxGeometry x="462" y="617" width="50" height="30" as="geometry" />
        </mxCell>
        <mxCell id="pp8-QFKgKfyrIBCOwYfq-449" value="src1" style="text;html=1;align=center;verticalAlign=middle;resizable=0;points=[];autosize=1;strokeColor=none;fillColor=none;fontStyle=1;fontSize=14;" parent="1" vertex="1">
          <mxGeometry x="463" y="737" width="50" height="30" as="geometry" />
        </mxCell>
        <mxCell id="pp8-QFKgKfyrIBCOwYfq-450" value="src2" style="text;html=1;align=center;verticalAlign=middle;resizable=0;points=[];autosize=1;strokeColor=none;fillColor=none;fontStyle=1;fontSize=14;" parent="1" vertex="1">
          <mxGeometry x="463" y="816.5" width="50" height="30" as="geometry" />
        </mxCell>
        <mxCell id="pp8-QFKgKfyrIBCOwYfq-451" value="src1" style="text;html=1;align=center;verticalAlign=middle;resizable=0;points=[];autosize=1;strokeColor=none;fillColor=none;fontStyle=1;fontSize=14;" parent="1" vertex="1">
          <mxGeometry x="483" y="917" width="50" height="30" as="geometry" />
        </mxCell>
        <mxCell id="pp8-QFKgKfyrIBCOwYfq-452" value="src2" style="text;html=1;align=center;verticalAlign=middle;resizable=0;points=[];autosize=1;strokeColor=none;fillColor=none;fontStyle=1;fontSize=14;" parent="1" vertex="1">
          <mxGeometry x="482" y="957" width="50" height="30" as="geometry" />
        </mxCell>
        <mxCell id="pp8-QFKgKfyrIBCOwYfq-453" value="src1" style="text;html=1;align=center;verticalAlign=middle;resizable=0;points=[];autosize=1;strokeColor=none;fillColor=none;fontStyle=1;fontSize=14;" parent="1" vertex="1">
          <mxGeometry x="479.5" y="1005" width="50" height="30" as="geometry" />
        </mxCell>
        <mxCell id="pp8-QFKgKfyrIBCOwYfq-454" value="src2" style="text;html=1;align=center;verticalAlign=middle;resizable=0;points=[];autosize=1;strokeColor=none;fillColor=none;fontStyle=1;fontSize=14;" parent="1" vertex="1">
          <mxGeometry x="479.5" y="1040" width="50" height="30" as="geometry" />
        </mxCell>
        <mxCell id="pp8-QFKgKfyrIBCOwYfq-456" value="&lt;font color=&quot;#ff0000&quot; style=&quot;font-size: 12px;&quot;&gt;forward&lt;/font&gt;" style="text;html=1;align=center;verticalAlign=middle;resizable=0;points=[];autosize=1;strokeColor=none;fillColor=none;fontStyle=1;fontSize=12;" parent="1" vertex="1">
          <mxGeometry x="452" y="573" width="70" height="30" as="geometry" />
        </mxCell>
        <mxCell id="pp8-QFKgKfyrIBCOwYfq-457" value="&lt;font color=&quot;#ff0000&quot; style=&quot;font-size: 12px;&quot;&gt;forward&lt;/font&gt;" style="text;html=1;align=center;verticalAlign=middle;resizable=0;points=[];autosize=1;strokeColor=none;fillColor=none;fontStyle=1;fontSize=12;" parent="1" vertex="1">
          <mxGeometry x="453" y="773.5" width="70" height="30" as="geometry" />
        </mxCell>
        <mxCell id="pp8-QFKgKfyrIBCOwYfq-458" value="&lt;font color=&quot;#ff0000&quot; style=&quot;font-size: 12px;&quot;&gt;forward&lt;/font&gt;" style="text;html=1;align=center;verticalAlign=middle;resizable=0;points=[];autosize=1;strokeColor=none;fillColor=none;fontStyle=1;fontSize=12;" parent="1" vertex="1">
          <mxGeometry x="473" y="938" width="70" height="30" as="geometry" />
        </mxCell>
        <mxCell id="pp8-QFKgKfyrIBCOwYfq-459" value="&lt;font color=&quot;#ff0000&quot; style=&quot;font-size: 12px;&quot;&gt;forward&lt;/font&gt;" style="text;html=1;align=center;verticalAlign=middle;resizable=0;points=[];autosize=1;strokeColor=none;fillColor=none;fontStyle=1;fontSize=12;" parent="1" vertex="1">
          <mxGeometry x="464.5" y="1023" width="70" height="30" as="geometry" />
        </mxCell>
        <mxCell id="pp8-QFKgKfyrIBCOwYfq-460" value="" style="shape=waypoint;sketch=0;fillStyle=solid;size=6;pointerEvents=1;points=[];fillColor=none;resizable=0;rotatable=0;perimeter=centerPerimeter;snapToPoint=1;strokeColor=#FF0000;" parent="1" vertex="1">
          <mxGeometry x="450" y="588.5" width="20" height="20" as="geometry" />
        </mxCell>
        <mxCell id="pp8-QFKgKfyrIBCOwYfq-461" value="" style="shape=waypoint;sketch=0;fillStyle=solid;size=6;pointerEvents=1;points=[];fillColor=none;resizable=0;rotatable=0;perimeter=centerPerimeter;snapToPoint=1;strokeColor=#FF0000;" parent="1" vertex="1">
          <mxGeometry x="450" y="790.5" width="20" height="20" as="geometry" />
        </mxCell>
        <mxCell id="pp8-QFKgKfyrIBCOwYfq-462" value="" style="shape=waypoint;sketch=0;fillStyle=solid;size=6;pointerEvents=1;points=[];fillColor=none;resizable=0;rotatable=0;perimeter=centerPerimeter;snapToPoint=1;strokeColor=#FF0000;" parent="1" vertex="1">
          <mxGeometry x="450" y="950" width="20" height="20" as="geometry" />
        </mxCell>
        <mxCell id="pp8-QFKgKfyrIBCOwYfq-463" value="" style="shape=waypoint;sketch=0;fillStyle=solid;size=6;pointerEvents=1;points=[];fillColor=none;resizable=0;rotatable=0;perimeter=centerPerimeter;snapToPoint=1;" parent="1" vertex="1">
          <mxGeometry x="440" y="950" width="20" height="20" as="geometry" />
        </mxCell>
        <mxCell id="pp8-QFKgKfyrIBCOwYfq-464" value="" style="shape=waypoint;sketch=0;fillStyle=solid;size=6;pointerEvents=1;points=[];fillColor=none;resizable=0;rotatable=0;perimeter=centerPerimeter;snapToPoint=1;" parent="1" vertex="1">
          <mxGeometry x="460" y="1029" width="20" height="20" as="geometry" />
        </mxCell>
        <mxCell id="pp8-QFKgKfyrIBCOwYfq-466" value="&lt;font color=&quot;#ff0000&quot; style=&quot;font-size: 12px;&quot;&gt;forward&lt;/font&gt;" style="text;html=1;align=center;verticalAlign=middle;resizable=0;points=[];autosize=1;strokeColor=none;fillColor=none;fontStyle=1;fontSize=12;" parent="1" vertex="1">
          <mxGeometry x="453" y="1175.5" width="70" height="30" as="geometry" />
        </mxCell>
        <mxCell id="pp8-QFKgKfyrIBCOwYfq-467" value="src1" style="text;html=1;align=center;verticalAlign=middle;resizable=0;points=[];autosize=1;strokeColor=none;fillColor=none;fontStyle=1;fontSize=14;" parent="1" vertex="1">
          <mxGeometry x="462.5" y="1137.5" width="50" height="30" as="geometry" />
        </mxCell>
        <mxCell id="pp8-QFKgKfyrIBCOwYfq-468" value="src2" style="text;html=1;align=center;verticalAlign=middle;resizable=0;points=[];autosize=1;strokeColor=none;fillColor=none;fontStyle=1;fontSize=14;" parent="1" vertex="1">
          <mxGeometry x="464.5" y="1217" width="50" height="30" as="geometry" />
        </mxCell>
        <mxCell id="pp8-QFKgKfyrIBCOwYfq-469" value="alu_out" style="text;html=1;align=center;verticalAlign=middle;resizable=0;points=[];autosize=1;strokeColor=none;fillColor=none;fontStyle=1;fontSize=14;" parent="1" vertex="1">
          <mxGeometry x="590" y="574.5" width="70" height="30" as="geometry" />
        </mxCell>
        <mxCell id="pp8-QFKgKfyrIBCOwYfq-470" value="alu_out" style="text;html=1;align=center;verticalAlign=middle;resizable=0;points=[];autosize=1;strokeColor=none;fillColor=none;fontStyle=1;fontSize=14;" parent="1" vertex="1">
          <mxGeometry x="590" y="773.5" width="70" height="30" as="geometry" />
        </mxCell>
        <mxCell id="pp8-QFKgKfyrIBCOwYfq-471" value="alu_out" style="text;html=1;align=center;verticalAlign=middle;resizable=0;points=[];autosize=1;strokeColor=none;fillColor=none;fontStyle=1;fontSize=14;" parent="1" vertex="1">
          <mxGeometry x="603" y="935.5" width="70" height="30" as="geometry" />
        </mxCell>
        <mxCell id="pp8-QFKgKfyrIBCOwYfq-472" value="br_out" style="text;html=1;align=center;verticalAlign=middle;resizable=0;points=[];autosize=1;strokeColor=none;fillColor=none;fontStyle=1;fontSize=14;" parent="1" vertex="1">
          <mxGeometry x="609" y="1021" width="70" height="30" as="geometry" />
        </mxCell>
        <mxCell id="pp8-QFKgKfyrIBCOwYfq-473" value="md_out" style="text;html=1;align=center;verticalAlign=middle;resizable=0;points=[];autosize=1;strokeColor=none;fillColor=none;fontStyle=1;fontSize=14;" parent="1" vertex="1">
          <mxGeometry x="604" y="1175.5" width="70" height="30" as="geometry" />
        </mxCell>
        <mxCell id="pp8-QFKgKfyrIBCOwYfq-474" value="complete" style="text;html=1;align=center;verticalAlign=middle;resizable=0;points=[];autosize=1;strokeColor=none;fillColor=none;fontStyle=1;fontSize=14;" parent="1" vertex="1">
          <mxGeometry x="902" y="633.5" width="80" height="30" as="geometry" />
        </mxCell>
        <mxCell id="pp8-QFKgKfyrIBCOwYfq-475" value="complete" style="text;html=1;align=center;verticalAlign=middle;resizable=0;points=[];autosize=1;strokeColor=none;fillColor=none;fontStyle=1;fontSize=14;" parent="1" vertex="1">
          <mxGeometry x="902" y="699.5" width="80" height="30" as="geometry" />
        </mxCell>
        <mxCell id="pp8-QFKgKfyrIBCOwYfq-477" value="complete" style="text;html=1;align=center;verticalAlign=middle;resizable=0;points=[];autosize=1;strokeColor=none;fillColor=none;fontStyle=1;fontSize=14;" parent="1" vertex="1">
          <mxGeometry x="902" y="755.5" width="80" height="30" as="geometry" />
        </mxCell>
        <mxCell id="pp8-QFKgKfyrIBCOwYfq-479" value="complete" style="text;html=1;align=center;verticalAlign=middle;resizable=0;points=[];autosize=1;strokeColor=none;fillColor=none;fontStyle=1;fontSize=14;" parent="1" vertex="1">
          <mxGeometry x="905.5" y="855" width="80" height="30" as="geometry" />
        </mxCell>
        <mxCell id="pp8-QFKgKfyrIBCOwYfq-480" value="complete" style="text;html=1;align=center;verticalAlign=middle;resizable=0;points=[];autosize=1;strokeColor=none;fillColor=none;fontStyle=1;fontSize=14;" parent="1" vertex="1">
          <mxGeometry x="942" y="1150" width="80" height="30" as="geometry" />
        </mxCell>
        <mxCell id="pp8-QFKgKfyrIBCOwYfq-481" value="commit" style="text;html=1;align=center;verticalAlign=middle;resizable=0;points=[];autosize=1;strokeColor=none;fillColor=none;fontStyle=1;fontSize=14;" parent="1" vertex="1">
          <mxGeometry x="1165" y="830" width="70" height="30" as="geometry" />
        </mxCell>
        <mxCell id="pp8-QFKgKfyrIBCOwYfq-484" value="&lt;font style=&quot;font-size: 60px;&quot;&gt;FrontEnd&lt;/font&gt;" style="text;html=1;align=center;verticalAlign=middle;resizable=0;points=[];autosize=1;strokeColor=none;fillColor=none;fontSize=60;" parent="1" vertex="1">
          <mxGeometry x="113.5" y="-210" width="270" height="90" as="geometry" />
        </mxCell>
        <mxCell id="pp8-QFKgKfyrIBCOwYfq-485" value="&lt;font style=&quot;font-size: 60px;&quot;&gt;BackEnd&lt;/font&gt;" style="text;html=1;align=center;verticalAlign=middle;resizable=0;points=[];autosize=1;strokeColor=none;fillColor=none;fontSize=60;" parent="1" vertex="1">
          <mxGeometry x="110" y="1610" width="260" height="90" as="geometry" />
        </mxCell>
        <mxCell id="OBkfgQADqY20GEj0UtqT-1" value="&lt;font style=&quot;font-size: 14px;&quot;&gt;&lt;b&gt;rob_index&lt;/b&gt;&lt;/font&gt;" style="text;html=1;align=center;verticalAlign=middle;resizable=0;points=[];autosize=1;strokeColor=none;fillColor=none;" parent="1" vertex="1">
          <mxGeometry x="-730" y="707" width="90" height="30" as="geometry" />
        </mxCell>
        <mxCell id="OBkfgQADqY20GEj0UtqT-4" value="&lt;b style=&quot;font-size: 16px;&quot;&gt;CSR RegFile&lt;/b&gt;" style="rounded=1;whiteSpace=wrap;html=1;fillColor=#fff2cc;strokeColor=#d6b656;fontSize=16;" parent="1" vertex="1">
          <mxGeometry x="160" y="816.5" width="160" height="49.5" as="geometry" />
        </mxCell>
        <mxCell id="OBkfgQADqY20GEj0UtqT-5" value="" style="endArrow=classic;html=1;rounded=0;exitX=0.999;exitY=0.25;exitDx=0;exitDy=0;exitPerimeter=0;entryX=0;entryY=0.505;entryDx=0;entryDy=0;entryPerimeter=0;" parent="1" source="pp8-QFKgKfyrIBCOwYfq-152" target="pp8-QFKgKfyrIBCOwYfq-179" edge="1">
          <mxGeometry width="50" height="50" relative="1" as="geometry">
            <mxPoint x="100" y="790" as="sourcePoint" />
            <mxPoint x="150" y="740" as="targetPoint" />
          </mxGeometry>
        </mxCell>
        <mxCell id="OBkfgQADqY20GEj0UtqT-6" value="" style="endArrow=classic;html=1;rounded=0;exitX=0.997;exitY=0.503;exitDx=0;exitDy=0;exitPerimeter=0;entryX=-0.02;entryY=0.246;entryDx=0;entryDy=0;entryPerimeter=0;" parent="1" source="pp8-QFKgKfyrIBCOwYfq-179" target="pp8-QFKgKfyrIBCOwYfq-192" edge="1">
          <mxGeometry width="50" height="50" relative="1" as="geometry">
            <mxPoint x="340" y="790" as="sourcePoint" />
            <mxPoint x="390" y="740" as="targetPoint" />
          </mxGeometry>
        </mxCell>
        <mxCell id="OBkfgQADqY20GEj0UtqT-7" value="raddr" style="text;html=1;align=center;verticalAlign=middle;resizable=0;points=[];autosize=1;strokeColor=none;fillColor=none;fontStyle=1;fontSize=14;" parent="1" vertex="1">
          <mxGeometry x="85" y="834.5" width="60" height="30" as="geometry" />
        </mxCell>
        <mxCell id="OBkfgQADqY20GEj0UtqT-8" value="" style="endArrow=none;html=1;rounded=0;" parent="1" edge="1">
          <mxGeometry width="50" height="50" relative="1" as="geometry">
            <mxPoint x="139" y="845" as="sourcePoint" />
            <mxPoint x="149" y="835" as="targetPoint" />
          </mxGeometry>
        </mxCell>
        <mxCell id="OBkfgQADqY20GEj0UtqT-9" value="2" style="text;html=1;align=center;verticalAlign=middle;resizable=0;points=[];autosize=1;strokeColor=none;fillColor=none;" parent="1" vertex="1">
          <mxGeometry x="130" y="836" width="30" height="30" as="geometry" />
        </mxCell>
        <mxCell id="OBkfgQADqY20GEj0UtqT-10" value="" style="endArrow=classic;html=1;rounded=0;exitX=0.999;exitY=0.25;exitDx=0;exitDy=0;exitPerimeter=0;entryX=0;entryY=0.505;entryDx=0;entryDy=0;entryPerimeter=0;" parent="1" edge="1">
          <mxGeometry width="50" height="50" relative="1" as="geometry">
            <mxPoint x="80" y="840" as="sourcePoint" />
            <mxPoint x="160" y="840" as="targetPoint" />
          </mxGeometry>
        </mxCell>
        <mxCell id="OBkfgQADqY20GEj0UtqT-11" value="rdata" style="text;html=1;align=center;verticalAlign=middle;resizable=0;points=[];autosize=1;strokeColor=none;fillColor=none;fontStyle=1;fontSize=14;" parent="1" vertex="1">
          <mxGeometry x="315" y="834.5" width="60" height="30" as="geometry" />
        </mxCell>
        <mxCell id="OBkfgQADqY20GEj0UtqT-12" value="" style="endArrow=none;html=1;rounded=0;" parent="1" edge="1">
          <mxGeometry width="50" height="50" relative="1" as="geometry">
            <mxPoint x="371" y="845" as="sourcePoint" />
            <mxPoint x="381" y="835" as="targetPoint" />
          </mxGeometry>
        </mxCell>
        <mxCell id="OBkfgQADqY20GEj0UtqT-13" value="2" style="text;html=1;align=center;verticalAlign=middle;resizable=0;points=[];autosize=1;strokeColor=none;fillColor=none;" parent="1" vertex="1">
          <mxGeometry x="362" y="836" width="30" height="30" as="geometry" />
        </mxCell>
        <mxCell id="OBkfgQADqY20GEj0UtqT-14" value="" style="endArrow=classic;html=1;rounded=0;exitX=0.997;exitY=0.503;exitDx=0;exitDy=0;exitPerimeter=0;entryX=-0.02;entryY=0.246;entryDx=0;entryDy=0;entryPerimeter=0;" parent="1" edge="1">
          <mxGeometry width="50" height="50" relative="1" as="geometry">
            <mxPoint x="320" y="840" as="sourcePoint" />
            <mxPoint x="399" y="840" as="targetPoint" />
          </mxGeometry>
        </mxCell>
        <mxCell id="OBkfgQADqY20GEj0UtqT-15" value="&lt;b&gt;Priv&lt;/b&gt;" style="rounded=1;whiteSpace=wrap;html=1;fillColor=#d5e8d4;strokeColor=#82b366;" parent="1" vertex="1">
          <mxGeometry x="522" y="826" width="55" height="30" as="geometry" />
        </mxCell>
        <mxCell id="OY7V5wZrcTOGdJZJS2dS-4" style="edgeStyle=orthogonalEdgeStyle;rounded=0;orthogonalLoop=1;jettySize=auto;html=1;exitX=1;exitY=0.5;exitDx=0;exitDy=0;entryX=0;entryY=0.5;entryDx=0;entryDy=0;" parent="1" edge="1">
          <mxGeometry relative="1" as="geometry">
            <mxPoint x="121" y="120" as="sourcePoint" />
            <mxPoint x="200" y="120" as="targetPoint" />
          </mxGeometry>
        </mxCell>
        <mxCell id="OY7V5wZrcTOGdJZJS2dS-5" value="" style="endArrow=none;html=1;rounded=0;" parent="1" edge="1">
          <mxGeometry width="50" height="50" relative="1" as="geometry">
            <mxPoint x="172" y="124" as="sourcePoint" />
            <mxPoint x="182" y="114" as="targetPoint" />
          </mxGeometry>
        </mxCell>
        <mxCell id="OY7V5wZrcTOGdJZJS2dS-6" value="4" style="text;html=1;align=center;verticalAlign=middle;resizable=0;points=[];autosize=1;strokeColor=none;fillColor=none;" parent="1" vertex="1">
          <mxGeometry x="163" y="115" width="30" height="30" as="geometry" />
        </mxCell>
        <mxCell id="OY7V5wZrcTOGdJZJS2dS-7" value="" style="group;direction=east;flipV=0;" parent="1" vertex="1" connectable="0">
          <mxGeometry x="200" y="-80" width="40" height="400" as="geometry" />
        </mxCell>
        <mxCell id="OY7V5wZrcTOGdJZJS2dS-8" value="" style="rounded=0;whiteSpace=wrap;html=1;fillColor=#f5f5f5;fontColor=#333333;strokeColor=#666666;direction=east;" parent="OY7V5wZrcTOGdJZJS2dS-7" vertex="1">
          <mxGeometry width="40" height="400" as="geometry" />
        </mxCell>
        <mxCell id="OY7V5wZrcTOGdJZJS2dS-9" value="" style="triangle;whiteSpace=wrap;html=1;rotation=-90;fillColor=#647687;fontColor=#ffffff;strokeColor=#314354;direction=east;" parent="OY7V5wZrcTOGdJZJS2dS-7" vertex="1">
          <mxGeometry y="360" width="40" height="40" as="geometry" />
        </mxCell>
        <mxCell id="OY7V5wZrcTOGdJZJS2dS-10" value="" style="endArrow=classic;html=1;rounded=0;edgeStyle=orthogonalEdgeStyle;entryX=0;entryY=0.513;entryDx=0;entryDy=0;entryPerimeter=0;" parent="1" edge="1">
          <mxGeometry width="50" height="50" relative="1" as="geometry">
            <mxPoint x="720" y="119" as="sourcePoint" />
            <mxPoint x="760" y="39.039999999999964" as="targetPoint" />
            <Array as="points">
              <mxPoint x="730" y="119" />
              <mxPoint x="730" y="40" />
              <mxPoint x="760" y="40" />
            </Array>
          </mxGeometry>
        </mxCell>
        <mxCell id="OY7V5wZrcTOGdJZJS2dS-11" value="" style="shape=waypoint;sketch=0;fillStyle=solid;size=6;pointerEvents=1;points=[];fillColor=none;resizable=0;rotatable=0;perimeter=centerPerimeter;snapToPoint=1;" parent="1" vertex="1">
          <mxGeometry x="720" y="110" width="20" height="20" as="geometry" />
        </mxCell>
        <mxCell id="OY7V5wZrcTOGdJZJS2dS-13" value="" style="endArrow=none;html=1;rounded=0;" parent="1" edge="1">
          <mxGeometry width="50" height="50" relative="1" as="geometry">
            <mxPoint x="888" y="44.5" as="sourcePoint" />
            <mxPoint x="898" y="34.5" as="targetPoint" />
          </mxGeometry>
        </mxCell>
        <mxCell id="OY7V5wZrcTOGdJZJS2dS-14" value="4" style="text;html=1;align=center;verticalAlign=middle;resizable=0;points=[];autosize=1;strokeColor=none;fillColor=none;" parent="1" vertex="1">
          <mxGeometry x="880" y="35" width="30" height="30" as="geometry" />
        </mxCell>
        <mxCell id="OY7V5wZrcTOGdJZJS2dS-15" value="alloc_reg" style="text;html=1;align=center;verticalAlign=middle;resizable=0;points=[];autosize=1;strokeColor=none;fillColor=none;fontStyle=1;fontSize=14;" parent="1" vertex="1">
          <mxGeometry x="840" y="10" width="80" height="30" as="geometry" />
        </mxCell>
        <mxCell id="OY7V5wZrcTOGdJZJS2dS-18" value="" style="triangle;whiteSpace=wrap;html=1;rotation=0;fillColor=#647687;fontColor=#ffffff;strokeColor=#314354;direction=east;" parent="1" vertex="1">
          <mxGeometry x="332" y="199" width="18" height="18" as="geometry" />
        </mxCell>
        <mxCell id="OY7V5wZrcTOGdJZJS2dS-22" value="" style="triangle;whiteSpace=wrap;html=1;rotation=0;fillColor=#647687;fontColor=#ffffff;strokeColor=#314354;direction=east;" parent="1" vertex="1">
          <mxGeometry x="332" y="141" width="18" height="18" as="geometry" />
        </mxCell>
        <mxCell id="OY7V5wZrcTOGdJZJS2dS-24" value="" style="triangle;whiteSpace=wrap;html=1;rotation=0;fillColor=#647687;fontColor=#ffffff;strokeColor=#314354;direction=east;" parent="1" vertex="1">
          <mxGeometry x="332" y="79" width="18" height="18" as="geometry" />
        </mxCell>
        <mxCell id="OY7V5wZrcTOGdJZJS2dS-25" value="" style="triangle;whiteSpace=wrap;html=1;rotation=0;fillColor=#647687;fontColor=#ffffff;strokeColor=#314354;direction=east;" parent="1" vertex="1">
          <mxGeometry x="332" y="21" width="18" height="18" as="geometry" />
        </mxCell>
        <mxCell id="OY7V5wZrcTOGdJZJS2dS-26" value="" style="triangle;whiteSpace=wrap;html=1;rotation=0;fillColor=#647687;fontColor=#ffffff;strokeColor=#314354;direction=east;" parent="1" vertex="1">
          <mxGeometry x="-480" y="580.5" width="20" height="39.5" as="geometry" />
        </mxCell>
        <mxCell id="OY7V5wZrcTOGdJZJS2dS-27" value="" style="triangle;whiteSpace=wrap;html=1;rotation=0;fillColor=#647687;fontColor=#ffffff;strokeColor=#314354;direction=east;" parent="1" vertex="1">
          <mxGeometry x="-480" y="780.75" width="20" height="39.5" as="geometry" />
        </mxCell>
        <mxCell id="OY7V5wZrcTOGdJZJS2dS-28" value="" style="triangle;whiteSpace=wrap;html=1;rotation=0;fillColor=#647687;fontColor=#ffffff;strokeColor=#314354;direction=east;" parent="1" vertex="1">
          <mxGeometry x="-480" y="980.5" width="20" height="39.5" as="geometry" />
        </mxCell>
        <mxCell id="OY7V5wZrcTOGdJZJS2dS-29" value="" style="triangle;whiteSpace=wrap;html=1;rotation=0;fillColor=#647687;fontColor=#ffffff;strokeColor=#314354;direction=east;" parent="1" vertex="1">
          <mxGeometry x="-480" y="1180.5" width="20" height="39.5" as="geometry" />
        </mxCell>
        <mxCell id="OY7V5wZrcTOGdJZJS2dS-30" value="" style="triangle;whiteSpace=wrap;html=1;rotation=0;fillColor=#647687;fontColor=#ffffff;strokeColor=#314354;direction=east;" parent="1" vertex="1">
          <mxGeometry x="-480" y="1380" width="20" height="39.5" as="geometry" />
        </mxCell>
        <mxCell id="OY7V5wZrcTOGdJZJS2dS-31" value="pack_PD" style="text;html=1;align=center;verticalAlign=middle;resizable=0;points=[];autosize=1;strokeColor=none;fillColor=none;fontStyle=1;fontSize=14;" parent="1" vertex="1">
          <mxGeometry x="233" y="89" width="80" height="30" as="geometry" />
        </mxCell>
        <mxCell id="OY7V5wZrcTOGdJZJS2dS-32" value="&lt;b&gt;&lt;font style=&quot;font-size: 14px;&quot;&gt;store_item&lt;/font&gt;&lt;/b&gt;" style="text;html=1;align=center;verticalAlign=middle;resizable=0;points=[];autosize=1;strokeColor=none;fillColor=none;" parent="1" vertex="1">
          <mxGeometry x="555" y="1481" width="90" height="30" as="geometry" />
        </mxCell>
      </root>
    </mxGraphModel>
  </diagram>
</mxfile>
